<?xml version="1.0" ?><svg viewBox="0 0 200 200" xmlns="http://www.w3.org/2000/svg"><defs><style>.a{fill:#fde3a7;}.b{fill:#f5a9bc;}.c{fill:#86dad4;}</style></defs><path class="a" d="M61.311,88.564A15.605,15.605,0,0,0,64.3,97.127c1.327,1.792,3.452,1.991,5.377,2.323a9.867,9.867,0,0,0,2.788-.2,1.132,1.132,0,0,0,.863-.664c2.064-3.391,1.845-5.277,2.456-6.04a.533.533,0,0,1,.73-.2.582.582,0,0,1,.332.663c-1,2.191-1.328,4.647-2.589,6.7a1.8,1.8,0,0,1-.465.531,54.665,54.665,0,0,0-4.315,3.452,9.047,9.047,0,0,0-1.526,1.659,5.631,5.631,0,0,1-6.439,1.527,19.918,19.918,0,0,1-5.377-2.523,10.287,10.287,0,0,1-2.456-2.92,48.864,48.864,0,0,0-3.319-4.05,2.385,2.385,0,0,1-.066-3.319c.8-1.261,1.593-2.522,2.456-3.717a12.569,12.569,0,0,0,1.526-4.248c1.749-6.59,5.787-12.1,12.546-11.949a13.969,13.969,0,0,1,7.767,3.054A9.517,9.517,0,0,1,78.57,82.59a8.984,8.984,0,0,1-.332,5.443c-.133.332-.266.6-.731.6a.61.61,0,0,1-.6-.664c-.133-1.062-.265-2.19-.332-3.252-.2-3.386-2.19-5.51-5.576-5.642A9.262,9.262,0,0,0,61.311,88.564Z"/><path class="a" d="M94.368,137.221a1.836,1.836,0,0,1-2.058-1.063c-2.19-4.314-4.58-8.5-6.97-12.678a16.272,16.272,0,0,1-1.194-3.585c-.133-.531.132-.6.464-.664,1.2-.264,2.456-.531,3.651-.8.62-.1.694.529,1.129,1.394a2.776,2.776,0,0,0,2.655,1.527,60.69,60.69,0,0,0,10.354-1,55.837,55.837,0,0,0,5.643-1,.7.7,0,0,1,.93.465c.4,1.593,1.327,2.921,1.792,4.514.265.863.2,1.394-.8,1.593A9.263,9.263,0,0,0,107.644,127c-.6.332-.531.664,0,1,1.66,1.128,1.66,1.128.066,2.522a8.02,8.02,0,0,0-1.062,1.063c-.6.729-.465,1.194.465,1.459.531.2.664.465.465,1a1.018,1.018,0,0,0,.265,1.261c.266.2.531.465.4.863s-.6.266-.864.266A123.173,123.173,0,0,0,94.368,137.221Z"/><path class="a" d="M78.437,35.592c.531-.062.664.332.8.664.731,1.461,1.726,1.726,2.987.73.531-.464.93-.531,1.328.067.332.531,1.261.929.6,1.858A1.842,1.842,0,0,0,85.274,41.9c.8.132.929.464.929,1.062a5.491,5.491,0,0,1-.2,1.792c-.133.332-.265.531-.6.531-1.66,0-2.191,1.46-2.324,2.721-.066.532-.066,1.063-.663,1.328A1.207,1.207,0,0,1,81.026,49a2.267,2.267,0,0,0-2.988.332c-1.194,1.2-1.991,1.062-2.456-.664a2.465,2.465,0,0,0-2.124-1.991,1.442,1.442,0,0,1-.73-2.257,3.015,3.015,0,0,0,.6-3.651,1.718,1.718,0,0,1,1.46-2.323,2.3,2.3,0,0,0,2.39-1.859A1.268,1.268,0,0,1,78.437,35.592Zm-1.195,7.7c0,.93.4,1.394,1.261,1.394a1.488,1.488,0,0,0,1.461-1.526A1.469,1.469,0,0,0,78.437,41.9C77.507,41.9,77.242,42.5,77.242,43.292Z"/><path class="a" d="M97.554,81.329c.245-2.863,2.494-11.357,3.253-14.139.4-1.527,1-1.925,2.522-1.461.863.266,1.792.531,2.655.8a1.264,1.264,0,0,1,.863,1.858c-1.592,4.78-3.385,9.493-5.377,14.073-.73,1.66-1.327,1.925-2.987,1.328C97.288,83.453,97.62,82.457,97.554,81.329Z"/><path class="a" d="M48.167,116.775c-2.389,0-3.85-1.128-4.248-3.252a4.028,4.028,0,0,1,2.058-4.05,4.7,4.7,0,0,1,4.58-.2,4.37,4.37,0,0,1,1.991,4.714C51.951,115.779,50.424,116.775,48.167,116.775Z"/><path class="a" d="M18.1,100.645c.748.373.992,1.261-.2,1.66-.8.2-1.66.066-2.456.265-1,.265-1.461.863-1.2,1.859.73,2.921,2.124,5.642,2.987,8.5a7.181,7.181,0,0,1,.332,1.128c.188,1.318-.924,1.633-1.593.8a5.685,5.685,0,0,1-1.129-1.925c-.929-2.457-1.858-4.979-2.655-7.436C10.905,101.638,14.533,99.22,18.1,100.645Z"/><path class="a" d="M20.885,121.621a.937.937,0,0,1-1.66.731,10.168,10.168,0,0,1-1.925-4.514c-.11-.882,1.212-1.6,1.793-.731A14.59,14.59,0,0,1,20.885,121.621Z"/><path class="a" d="M113.485,135.893c-.265,0-.464,0-.531-.265-.066-.2,1.2-1.195,1.527-1.262s.4.133.4.4A1.515,1.515,0,0,1,113.485,135.893Z"/><path class="b" d="M88.792,133.5c-2.191-.465-4.248-1.261-6.373-1.859-3.053-.929-6.107-1.725-9.094-2.853-1.659-.6-2.788,0-4.049.53-5.642,2.39-11.285,4.647-16.86,7.3C47.238,139.08,41.861,141,36.683,143.46c-1.725.8-3.584,1.195-5.244,2.058a3.013,3.013,0,0,0-1.128.73c7.49,2.934-4.577-1.585,25.49,9.293a2.266,2.266,0,0,0,2.323-.332c17.628-11.466,14.175-8.762,31-19.316.6-.4,1-.4,1.327.265,1.062,2.124,2.788,2.456,4.913,2.059a13.739,13.739,0,0,1,1.659-.067c2.589.067,5.178-.332,7.7-.465a5.272,5.272,0,0,1,3.518,1.195c.664.531.6,1.261-.066,1.925a16.454,16.454,0,0,1-4.779,2.788c-5.842,2.788-11.883,5.045-17.658,7.965-8.779,4.454-12.364,7.522-20.777,11.285a3.111,3.111,0,0,1-2.057.133c-4.182-1.194-8.3-2.655-12.546-3.784-9.98-2.7-20.709-7.967-27.482-10.554a2.951,2.951,0,0,1-2.19-3.054,19.37,19.37,0,0,0-1.129-5.576c-3.451-10.82-7.5-21.441-11.085-32.261-.929-2.72-1.726-5.443-2.589-8.164-.332-1-.2-1.327.8-1.394,7.785-.8,22.355-4.889,43.611-7.7.332-.067.731-.2.93.066.2.332-.266.465-.4.731-.6,2.057-2.522,1.858-3.982,2.057-.1.013-36.143,6.018-36.244,6.041a4.365,4.365,0,0,0-1.593.73,1.993,1.993,0,0,0-.6,2.589c2.855,6.174,4.713,12.745,7.037,19.118.664,1.858,1.128,3.783,1.593,5.642a75.978,75.978,0,0,0,4.514,12.147,18.357,18.357,0,0,1,.332,1.859c.132.266.132.663.265.93.93,2.521,1.328,2.788,3.917,1.991,11.446-3.477,14.135-3.561,23.365-8.1,7.331-3.524,14.656-4.716,21.308-8.629a1.83,1.83,0,0,1,1.66-.133c3.784,1.262,7.7,1.858,11.55,2.987,1.129.332,2.191.731,3.319,1C88.394,131.644,88.726,132.442,88.792,133.5ZM75.383,152.62a3.892,3.892,0,0,0,1.792-.531c3.054-1.26,5.775-3.052,8.7-4.579q2.192-1.1,4.381-2.39c1.261-.8,1.2-1.925-.066-2.656-.8-.464-1.593-.729-2.456-1.128a3.605,3.605,0,0,0-3.386.067c-4.58,2.19-8.895,4.845-13.209,7.434-.531.332-1.261.664-1.261,1.394,0,.863.929.73,1.394,1.062a4.487,4.487,0,0,0,.8.4A9.161,9.161,0,0,0,75.383,152.62Z"/><path class="b" d="M86.8,107.018a5.7,5.7,0,0,0-1.593.132c-.332.067-.664.133-.93-.2-.2-.332,0-.6.2-.8,1.239-2.064,5-8.639,5.178-9.16.2-.464.465-.664.929-.531a46.565,46.565,0,0,0,6.838.531,31.17,31.17,0,0,0,4.977-.2,27.135,27.135,0,0,0,3.254-.4c.464-.067.6.066.4.465a22.951,22.951,0,0,1-2.92,4.248c-.4.464-1.063.332-1.593.464-1.593.332-2.19,1.328-1.129,2.589s.864,2.39.465,3.784a20.278,20.278,0,0,0-1.062,6.9c.067.8-.464,1.128-1.593.862a19.811,19.811,0,0,0-5.908-.331c-3.452.265-6.9,0-10.289.729-.8.2-1.2-.265-.863-1,.731-1.659,1.527-3.252,2.257-4.845.266-.6.8-.6,1.328-.663a5.24,5.24,0,0,0,2.456-.664c.465-.332,1-.73.8-1.461C87.73,106.686,87.066,107.15,86.8,107.018Zm-1.262,5.774c.1.3,5.562-.006,8.343.071,1.2.033,3.606.314,3.606-.071s-5.113-.382-7.63-.385C88.41,112.405,85.436,112.49,85.539,112.792Zm15.865-12.08c0-.242-10.488-.873-10.488-.6S101.4,100.953,101.4,100.712Zm-3.523,5.711c-2.458-.408-9.547-.835-9.089-.8-.373,0-.378.53.066.53a56.867,56.867,0,0,1,8.165.465C97.9,106.838,99.469,106.687,97.881,106.423Zm-9.554,2.984c.087.322,2.855.116,4.282.116s4.281.241,4.281.017-2.854-.332-4.281-.315S88.241,109.086,88.327,109.407Zm1.859-6.5c0,.3,2.864.115,4.389.267a19.514,19.514,0,0,0,3.709.264,12.6,12.6,0,0,0-3.67-.617C93.078,102.694,90.186,102.6,90.186,102.9Z"/><path class="b" d="M165.4,120.36c-2.855-.6-5.775.133-8.63-.066a64.242,64.242,0,0,0-7.169-.133c-.664,0-.8-.332-.73-.863.6-2.39,1-4.846,1.394-7.3.066-.465.4-.465.73-.4a25.144,25.144,0,0,0,4.448.332c4.779.265,9.492.4,14.271.8.8.067,1.66,0,1.793-1.128.066-.8.6-1.062,1.394-1,.8.133,1.659-.066,2.456.133.531.133.73.332.531.863a26.741,26.741,0,0,0-1.726,5.974,1.138,1.138,0,0,1-1.062,1c-1.593.265-3.253.663-4.846.929C167.253,119.7,166.457,120.493,165.4,120.36Z"/><path class="b" d="M130.412,76.018c.465.4.8.664,1.129.929A4.294,4.294,0,0,1,133.4,81.2a9.772,9.772,0,0,1-2.389,4.912,1.258,1.258,0,0,1-1.461.4c-.6-.265-.531-.73-.531-1.261,0-.67.507-2.257-1.194-2.257h-.266c-1.461.332-2.523-.4-2.191-2.589a3.556,3.556,0,0,0-1.062-3.651,3.819,3.819,0,0,0-3.053-.863,40.734,40.734,0,0,0-7.568,1.859,6.118,6.118,0,0,1-2.455.332,1.59,1.59,0,0,1-1.527-1.991c.066-.332.265-.8.6-.731.93.133,1.394-.663,2.058-1.062a18.648,18.648,0,0,1,10.753-2.92,3.382,3.382,0,0,0,2.788-1.063,4.544,4.544,0,0,1,6.905.6,4.442,4.442,0,0,1,0,4.447C132.471,75.819,132.072,75.885,130.412,76.018Z"/><path class="b" d="M79.631,55.573c-.332-1,.465-1.2,1.262-1.261s1.593-.266,1.725,1c.067.8.863,1.129,1.527,1.262a1.993,1.993,0,0,0,2.124-.731c.4-.6.731-.531,1.195-.2a9.894,9.894,0,0,1,1.328,1c.464.465.8.863.332,1.659-.664,1.063,0,2.788,1.2,3.585.531.332.929.664.8,1.394-.133.664-.465.929-1.195,1.062-1.2.2-1.991,1.792-1.726,3.253.133.531.332,1.062-.265,1.526a1.5,1.5,0,0,1-1.792.2c-1.394-.731-2.324-.465-3.519.663a1.109,1.109,0,0,1-1.327.2c-.6-.2-1.195-.531-1.261-1.194a2.9,2.9,0,0,0-2.456-2.656c-1.925-.531-2.324-1.659-1.328-3.385a3.061,3.061,0,0,0-.266-2.921c-.2-.4-.663-.73-.4-1.327.266-.664.465-1.129,1.461-.93C78.9,58.162,79.7,57.5,79.631,55.573Zm4.979,7.634a1.805,1.805,0,0,0-1.593-1.793,1.631,1.631,0,1,0,.2,3.253C84.145,64.733,84.676,64.2,84.61,63.207Z"/><path class="b" d="M70.637,64.623c-.1.315-.4.489-.564.708a12.032,12.032,0,0,1-.972,1.161c-.412.387-.687.35-1.2-.079-3.1-2.576-9.1-9.459-11.832-12.765-.6-.73-.265-1.2.2-1.593A21.316,21.316,0,0,0,58.456,50c1.129-1.062,1.527-1.062,2.456.2,2.15,2.986,8.728,12.67,9.56,13.9C70.72,64.459,70.678,64.494,70.637,64.623Z"/><path class="b" d="M64.032,146.381a17.111,17.111,0,0,1-3.12,1.924,1.106,1.106,0,0,1-.465.068,35.245,35.245,0,0,1-4.513-1.328c-.2-.067-.531-.133-.531-.4s.265-.332.464-.4c1.062-.6,2.124-1.128,3.12-1.726a1.32,1.32,0,0,1,1.394,0C61.576,145.12,62.771,145.717,64.032,146.381Z"/><path class="b" d="M50.424,149.169c1.2-.664,2.257-1.2,3.319-1.792a1.111,1.111,0,0,1,1.2,0,23.04,23.04,0,0,0,4.846,1.592c-1.328.731-2.589,1.4-3.784,2.125a.6.6,0,0,1-.664.067A42.512,42.512,0,0,1,50.424,149.169Z"/><path class="b" d="M60.514,143.792c1.394-.929,2.854-1.46,4.116-2.256.331-.2.6-.067.929.065,1,.532,1.991,1,3.12,1.594-4.125,2.82-3.524,2.7-4.049,2.522A32.19,32.19,0,0,1,60.514,143.792Z"/><path class="b" d="M61.709,151.891c-1.527,1.062-2.921,1.991-4.315,2.92a.815.815,0,0,1-.863.133c-1.062-.4-2.19-.73-3.385-1.128a19.753,19.753,0,0,1,3.651-2.324,2.29,2.29,0,0,1,2.788-.265A10.115,10.115,0,0,0,61.709,151.891Z"/><path class="b" d="M56.73,144.921c-4.518,2.447-4.419,2.509-4.779,2.389a26.87,26.87,0,0,1-3.85-1.659,28.733,28.733,0,0,1,4.58-2.191C53.4,143.1,54.494,144.3,56.73,144.921Z"/><path class="b" d="M54.872,151.692c-.8.531-1.461.928-2.191,1.46a1.145,1.145,0,0,1-1.128.066c-1.66-.6-3.386-1.195-5.045-1.858l.2-.2a4.359,4.359,0,0,1,5.775-.331A16.584,16.584,0,0,0,54.872,151.692Z"/><path class="b" d="M42.99,147.775a37.765,37.765,0,0,0,3.651-1.527,1.14,1.14,0,0,1,1.128,0c1.062.6,2.191,1.062,3.319,1.66-1,.8-2.19,1.194-3.186,1.858C47.459,149.99,47.21,149.533,42.99,147.775Z"/><path class="b" d="M50.026,143.859c-1.527.73-3.12,1.46-4.647,2.19-.531.265-2.854-.73-3.053-1.194-.133-.332.2-.4.332-.465l3.983-1.792a.767.767,0,0,1,.663,0C48.167,143,49.03,143.394,50.026,143.859Z"/><path class="b" d="M44.317,146.514c-3.053.929-5.642,3.119-8.762.73.531-.2,1.062-.4,1.66-.6l3.385-1.393a1.2,1.2,0,0,1,1.46.133A10.27,10.27,0,0,0,44.317,146.514Z"/><path class="b" d="M53.81,142.929c1.593-.73,3.053-1.394,4.58-2.058a1,1,0,0,1,.863.067l2.522,1.261c-1.327.73-2.589,1.46-3.916,2.058-.664.332-1.328-.2-1.992-.4A18.32,18.32,0,0,1,53.81,142.929Z"/><path class="b" d="M72.993,140.606a11.86,11.86,0,0,0-1.792,1.128,2.842,2.842,0,0,1-3.784.133c-.531-.332-1.062-.531-1.725-.929q2.19-1,4.181-1.992c.4-.2.664-.066,1,.2A7.1,7.1,0,0,0,72.993,140.606Z"/><path class="b" d="M67.086,139.477c-1.394.731-2.656,1.328-3.983,1.992-.531.265-.93,0-1.394-.2a6.884,6.884,0,0,1-2.124-1c1.593-.8,3.053-1.527,4.58-2.323a.623.623,0,0,1,.73.132C65.559,138.549,66.223,138.946,67.086,139.477Z"/><path class="b" d="M71.932,142.066c3.9-2.23,3.955-2.638,4.58-2.39l3.186,1.063c-1.46.863-2.722,1.592-4.049,2.389-.2.133-.465,0-.664-.066C74.056,142.8,73.06,142.465,71.932,142.066Z"/><path class="b" d="M55.8,141.2c-1.593.73-2.987,1.394-4.381,1.991-.8.332-1.461-.133-2.191-.332a12.923,12.923,0,0,1-1.394-.6c.2-.466.6-.466.863-.6a7.487,7.487,0,0,0,2.124-.863C52.615,139.544,54.075,140.672,55.8,141.2Z"/><path class="b" d="M84.477,137.752c-1.261.8-2.389,1.46-3.451,2.124a1.5,1.5,0,0,1-1.063.132c-.995-.265-1.925-.53-3.119-.929,1.526-.863,2.854-1.593,4.248-2.323.4-.2.73.066,1.062.2C82.884,137.154,83.548,137.42,84.477,137.752Z"/><path class="b" d="M53.345,139.676c4.608-2.209,4.612-2.59,5.111-2.256.664.53,1.527.73,2.257,1.393-1.327.664-2.589,1.262-3.85,1.926a1.139,1.139,0,0,1-.929-.067C55.137,140.407,54.407,140.141,53.345,139.676Z"/><path class="b" d="M66.422,136.025c-1.527.8-2.987,1.461-4.448,2.257-.332.2-.531.134-.863-.065-.6-.4-1.327-.8-2.057-1.2a38.549,38.549,0,0,1,4.447-2.058c.465-.2.863.134,1.328.332S65.824,135.761,66.422,136.025Z"/><path class="b" d="M78.105,137.553c-1.2.73-2.39,1.26-3.452,1.991a1.528,1.528,0,0,1-2.058,0c-.464-.4-1.394-.6-1.394-1.128.067-.531,1.062-.531,1.527-.863C74.52,136.291,76.312,136.822,78.105,137.553Z"/><path class="b" d="M59.186,150.1l3.386-1.991a.983.983,0,0,1,.863,0c.863.332,1.659.6,2.655,1-3.518,2.152-3.385,2.457-3.916,2.191-1-.266-1.926-.6-2.921-.863A.715.715,0,0,1,59.186,150.1Z"/><path class="b" d="M71.932,137.221a17.883,17.883,0,0,1-3.452,1.592,4.083,4.083,0,0,1-3.054-1.128c-.2-.332.067-.4.266-.464,1.062-.532,2.124-1,3.186-1.461a.954.954,0,0,1,.929.133C70.471,136.357,71.2,136.756,71.932,137.221Z"/><path class="b" d="M70.139,135.229c1.46-.663,2.788-1.261,4.049-1.792a.727.727,0,0,1,.731.066c.663.4,1.327.731,2.19,1.2-1.46.731-2.722,1.394-4.049,1.925-.465.2-.929-.266-1.394-.465C71.268,135.893,70.8,135.628,70.139,135.229Z"/><path class="b" d="M70.405,146.381c-1.129.73-2.191,1.394-3.187,2.058a.518.518,0,0,1-.531.066c-.929-.332-1.858-.6-3.12-1,1.262-.864,2.324-1.594,3.452-2.257.2-.133.531,0,.8.132C68.546,145.717,69.409,145.982,70.405,146.381Z"/><path class="b" d="M74.587,143.792c-1,.664-1.925,1.261-2.855,1.859a.954.954,0,0,1-.73.2c-1-.331-1.991-.663-3.186-1.062a18.093,18.093,0,0,1,3.253-2.124c.2-.133.4,0,.531.066C72.6,143,73.525,143.394,74.587,143.792Z"/><path class="b" d="M138.843,119.3a1.1,1.1,0,0,1-.863-1.659,11.2,11.2,0,0,1,2.655-2.656,1,1,0,0,1,1.2.067,1.087,1.087,0,0,1,.464,1.061C142.228,116.908,139.639,119.3,138.843,119.3Z"/><path class="b" d="M89.323,134.765c-1.261.8-2.456,1.526-3.651,2.323a.725.725,0,0,1-.73.066c-.863-.332-1.66-.6-2.722-.929,1.527-.8,2.788-1.527,4.182-2.191,1.062-.531,1.925.4,2.921.465Z"/><path class="b" d="M126.828,105.623c-.864,0-1.261-.464-.929-1.26a6.641,6.641,0,0,1,2.456-2.789,1.135,1.135,0,0,1,1.46.2,1.112,1.112,0,0,1,.067,1.461C129.283,104.363,127.691,105.623,126.828,105.623Z"/><path class="b" d="M132.4,113.788c-.863,0-1.394-.6-1-1.328A7.109,7.109,0,0,1,134,109.805a1.064,1.064,0,0,1,1.461.2,1.012,1.012,0,0,1-.067,1.527c-.664.664-1.328,1.393-2.058,1.991C133,113.656,132.736,113.855,132.4,113.788Z"/><path class="b" d="M134,95.268a1.348,1.348,0,0,1-.4,1c-.6.6-1.128,1.2-1.725,1.792a1.088,1.088,0,0,1-1.594.067,1.112,1.112,0,0,1-.066-1.66c.73-.73,1.195-1.726,2.257-2.19A1,1,0,0,1,134,95.268Z"/><path class="b" d="M121.053,101.84a1.244,1.244,0,0,1-.332.929c-.6.6-1.2,1.262-1.792,1.859a1.128,1.128,0,0,1-1.527.132,1.142,1.142,0,0,1-.266-1.526,5.769,5.769,0,0,1,2.324-2.39A1.089,1.089,0,0,1,121.053,101.84Z"/><path class="b" d="M129.55,125.073a9.823,9.823,0,0,1,2.323-2.655c.97-.81,2.267.282,1.659,1.195a8.593,8.593,0,0,1-2.244,2.568C130.119,127.054,129,126.074,129.55,125.073Z"/><path class="b" d="M140.568,101.84a1.345,1.345,0,0,1-.4.995c-.6.6-1.194,1.262-1.792,1.793a1.189,1.189,0,0,1-1.726.132c-.531-.53-.331-1.061.066-1.593a11.689,11.689,0,0,1,1.992-2.058,1.2,1.2,0,0,1,1.394-.132A.84.84,0,0,1,140.568,101.84Z"/><path class="b" d="M75.848,136.158c1.593-.73,3.053-1.394,4.447-2.124.332-.2.6,0,.863.133.6.265,1.129.465,1.859.8-1.328.731-2.589,1.394-3.784,2.058-.4.2-.6-.066-.929-.2C77.574,136.623,76.844,136.424,75.848,136.158Z"/><path class="b" d="M82.22,132.375c-1.128.531-2.124.929-3.119,1.394a3.6,3.6,0,0,1-3.452-.6c-.266-.265-.133-.4.133-.531a13.018,13.018,0,0,1,2.987-1.261C79.9,131.247,80.959,131.976,82.22,132.375Z"/><path class="b" d="M125.965,116.643c.465-.2.73.066,1.062.4a.911.911,0,0,1,.066,1.2,7.827,7.827,0,0,1-1.756,1.775c-2.307,1.668-2.54.153-2.019-.968A6.461,6.461,0,0,1,125.965,116.643Z"/><path class="b" d="M119.459,112.593a9.082,9.082,0,0,1,2.059-2.522,1.21,1.21,0,0,1,1.328-.133c.53.2.729.465.53,1.063a7.454,7.454,0,0,1-2.19,2.787,1,1,0,0,1-1.2.067A1.346,1.346,0,0,1,119.459,112.593Z"/><path class="b" d="M144.286,107.416a1.065,1.065,0,0,1,1.128.6.925.925,0,0,1-.2,1.195c-.664.664-1.328,1.394-2.058,1.991a1.039,1.039,0,0,1-1.46.133,1.054,1.054,0,0,1-.133-1.526,15.709,15.709,0,0,1,1.991-2.191A1.732,1.732,0,0,1,144.286,107.416Z"/><path class="b" d="M125.832,127a1.144,1.144,0,0,1-.332.863,12.729,12.729,0,0,1-1.925,1.859,1.087,1.087,0,0,1-1.593.066c-.531-.531-.332-1.129.132-1.66.6-.663,1.262-1.261,1.859-1.925A1.087,1.087,0,0,1,125.832,127Z"/><path class="b" d="M146.476,120.626c-.6.664-1.128,1.26-1.725,1.924a.893.893,0,0,1-1.328.133,1.031,1.031,0,0,1-.332-1.328,11.123,11.123,0,0,1,1.792-2.456C145.738,117.875,147.72,118.963,146.476,120.626Z"/><path class="b" d="M71.334,133.835c-1.129.531-2.323,1.063-3.452,1.527a1.4,1.4,0,0,1-1.261,0c-.6-.266-1.261-.6-2.058-1,1.46-.6,2.788-1.2,4.116-1.726C69.038,132.461,69.049,132.8,71.334,133.835Z"/><path class="b" d="M136.054,127a7.469,7.469,0,0,1,1.926-2.389,1.132,1.132,0,0,1,1.66,1.526c-.6.664-1.195,1.328-1.727,1.991C136.815,129.005,135.432,128.348,136.054,127Z"/><path class="b" d="M37.48,143.792c1.593-.664,2.921-1.328,4.315-1.859.929-.4,1.46.6,2.389.863a23.062,23.062,0,0,1-4.447,1.925C39.007,144.987,38.343,144.257,37.48,143.792Z"/><path class="b" d="M31.705,145.85c1.527-.531,2.987-1.128,4.514-1.593.929-.266,1.527.53,2.323.862A5.745,5.745,0,0,1,31.705,145.85Z"/><path class="b" d="M54.938,138.017a27.451,27.451,0,0,1-4.381,1.991c-.8.266-1.46-.4-2.257-.664,1.394-.663,2.722-1.327,4.049-1.991C53.279,136.955,53.876,137.818,54.938,138.017Z"/><path class="b" d="M46.773,150.165a1.654,1.654,0,0,1-2.058.531c-1.593-.664-3.252-1.195-4.978-1.727.066-.065.133-.065.2-.132a4.118,4.118,0,0,1,4.58.265A23.4,23.4,0,0,0,46.773,150.165Z"/><path class="b" d="M127.492,92.414c.265-.664.531-1.328.862-1.992a1.055,1.055,0,0,1,1.594-.531,1.04,1.04,0,0,1,.4,1.527c-.332.6-.664,1.129-.93,1.726C128.543,94.239,127.171,93.48,127.492,92.414Z"/><path class="b" d="M113.352,118.369c-.332,0-.663-.067-.73-.4a1.211,1.211,0,0,1,.134-1.327,12.455,12.455,0,0,1,1.26-1.394c.532-.531,1.129-.8,1.727-.2a1.027,1.027,0,0,1-.134,1.659C114.88,117.373,114.415,118.3,113.352,118.369Z"/><path class="b" d="M49.362,140.54c-1.46.664-2.655,1.26-3.983,1.791-.8.267-1.46-.264-2.057-.663-.266-.132,0-.332.2-.4,1.2-.465,2.456-1.062,3.717-1.461C47.968,139.544,48.5,140.274,49.362,140.54Z"/><path class="b" d="M59.917,135.694c-1.262.6-2.523,1.2-3.85,1.859-.93.464-1.527-.266-2.523-.6,1.726-.73,3.12-1.394,4.58-1.925C58.788,134.7,59.253,135.561,59.917,135.694Z"/><path class="b" d="M75.317,131.976c-1.793,1.063-3.519,1.926-5.311.266C71.666,130.782,72.993,130.715,75.317,131.976Z"/><path class="b" d="M58.987,134.566a36.447,36.447,0,0,1,4.846-2.059c.465-.2,1.2.332,1.992.6-1.66.73-3.054,1.328-4.448,1.925C60.581,135.3,59.917,134.9,58.987,134.566Z"/><path class="b" d="M70.006,131.114c-1.659.73-3.186,2.057-5.177.863,1.194-.531,2.323-1,3.451-1.461C68.944,130.317,69.409,130.915,70.006,131.114Z"/><path class="b" d="M118.066,123.613c0,.863-1.261,2.058-2.059,1.858s-.664-.862-.464-1.327a2.2,2.2,0,0,1,1.394-1.262C117.667,122.617,118.066,122.882,118.066,123.613Z"/><path class="b" d="M81.49,133.57c1.328-1.46,2.655-.664,4.049-.2C84.278,134.566,84.278,134.566,81.49,133.57Z"/><path class="b" d="M140.1,95.733c0,.73-.864,1.726-1.4,1.726a.861.861,0,0,1-.862-1.062,1.19,1.19,0,0,1,1.194-1.2A.793.793,0,0,1,140.1,95.733Z"/><path class="b" d="M69.409,130.118c1.394-.664,2.589-1.527,4.049-.4C72.263,130.184,71.068,131.313,69.409,130.118Z"/><path class="b" d="M73.923,130.45c.8-.6,1.991-.4,4.115.6-.862-.066-1.393.863-2.19.4A8.766,8.766,0,0,1,73.923,130.45Z"/><path class="b" d="M86.2,141.668c2.026.641,5.46,1.568,3.718,2.788a5.489,5.489,0,0,1-.8.531c-4.182,1.991-8.032,4.514-12.148,6.506a3.05,3.05,0,0,1-2.721.2,22.252,22.252,0,0,0-2.921-1.195c-.8-.266-.465-.6-.066-.8C74.167,147.888,81.829,143.417,86.2,141.668Z"/><path class="c" d="M174.29,100.446c-4.448-.2-8.895.133-13.343.2-3.916.067-7.767-.265-11.682-.4-1.129-.067-2.258,0-3.386-.067a1.911,1.911,0,0,1-1.992-1.327,7.763,7.763,0,0,0-4.115-4.581,15.516,15.516,0,0,1-4.514-2.655,4.106,4.106,0,0,0-1.792-.6.99.99,0,0,1-.864-.8,5.282,5.282,0,0,1,.664-6.04,4.62,4.62,0,0,0,.133-5.975,4.622,4.622,0,0,1-.465-1c-.065-.133-.2-.4-.132-.465.929-.73.4-2.323,1.726-2.788.4-.133.465-.332.332-.73a4.286,4.286,0,0,0-.8-1.66c-.6-.6-.4-.929.332-1.194.332-.133.731-.133.8-.465.066-.465-.465-.531-.73-.664a10.475,10.475,0,0,0-9.891.664,4.977,4.977,0,0,1-2.854.863c-.731-.067-1.129-.4-1.195-1.062a40.538,40.538,0,0,1-.133-8.032,2.178,2.178,0,0,1,2.456-2.058c3.386,0,6.837-.133,10.222,0,5.458.225,45.869.863,50.582.863a10.18,10.18,0,0,1,5.709,1.593,3.153,3.153,0,0,1,1.394,2.058,47.646,47.646,0,0,1,.2,11.085c-.133,1.992-.266,3.983-.465,5.908-.4,4.58-.465,9.227-1.792,13.741-1,3.319-1.992,4.912-6.506,5.377C179.533,100.579,176.878,100.313,174.29,100.446ZM142.427,79.735h-4.248a1.144,1.144,0,0,0-1.195.863c-.133.664.332,1.062.929,1.261a6.455,6.455,0,0,0,2.257.4l11.351.2c4.115.133,8.232-.332,12.347-.2a11.774,11.774,0,0,0,3.053,0c1.2-.133,1.991-.8,1.926-1.726a1.945,1.945,0,0,0-2.258-1.461C161.88,79.7,151.351,79.385,142.427,79.735Z"/><path class="c" d="M185.707,129.719c-.132,3.319-.664,6.572-1,9.825a2.444,2.444,0,0,1-.863,1.328c-4.465,4.217-11.791,7.218-19.051,12.944a3.944,3.944,0,0,1-3.319.8c-14.745-1.747-9.683-.808-22.7-1.992-3.982-.4-7.965-.531-12.015-.6-3.385-.134-6.7-.466-10.09-.731-1.612-.1-1.441-1.9-2.389-6.638-.4-2.191-.863-4.315-1.327-6.5-.134-.531,0-.8.53-.863.731-.066,1.395-.266,2.125-.332.6-.066,1-.332.929-1.062,0-2.058,0-2.058,1.992-2.523a18.083,18.083,0,0,1,4.579-.6,15.044,15.044,0,0,0,3.85-.2,3.181,3.181,0,0,0,1.461-.531c1.129-1.128,2.589-1.328,4.049-1.66a66.545,66.545,0,0,0,12.812-3.451,4.284,4.284,0,0,0,2.92-3.851c.067-.863.464-1.26,1.394-1.26,2.721.065,5.51-.2,8.231.065,2.855.267,5.642-.065,8.43-.065,1.328,0,2.523-.8,3.785-1.129,4.646-1.195,9.226-2.456,13.873-3.717,1.859-.532,1.48-.413,1.924,1.46C185.943,118.874,185.713,129.615,185.707,129.719Zm-59.61,6.174c-2.3.19-1.96,2.225-.133,2.389,6.564.7,26.923,1.2,26.819,1.195a1.569,1.569,0,0,0,.6-2.987,5.968,5.968,0,0,0-2.39-.531C149.849,135.907,129.335,135.568,126.1,135.893Z"/><path class="c" d="M72.131,113.788c-.067.6-.266,1.2.331,1.46.6.332,1.063-.132,1.527-.4a10.608,10.608,0,0,0,1.726-1.727c-.066.864-.066,1.528-.133,2.191a5.1,5.1,0,0,0,.664,2.788c1.129,2.191.4,4.115-1.991,4.846a14.393,14.393,0,0,0-3.85,2.389,21.147,21.147,0,0,1-8.032,3.717c-2.058.4-3.85,1.594-5.775,2.324-3.519,1.327-6.771,3.252-10.488,3.916a27.465,27.465,0,0,0-6.439,2.258A5.926,5.926,0,0,1,31.24,133.1a14.424,14.424,0,0,1,.531-6.306,8.56,8.56,0,0,0-.332-4.846,4.448,4.448,0,0,1,.4-3.982c.664-1.129,1.2-1.262,2.323-.6a25.683,25.683,0,0,0,5.775,2.323c-3.385,2.058-3.916,5.576-4.646,8.961a3.929,3.929,0,0,0,.4,2.125c.6,1.328,1.261,1.66,2.788,1.526a17.009,17.009,0,0,0,3.717-1,3.143,3.143,0,0,0,2.058-2.853c.2-1.793.2-1.859,1.991-1.992a1.351,1.351,0,0,0,1.129-.731,2.943,2.943,0,0,0-.4-3.85,2.735,2.735,0,0,1-.331-.464,2.031,2.031,0,0,1,1.394-.067c4.673.436,9.252.673,13.939-.332,2.921-.6,5.178-2.389,7.568-3.982.464-.266,1.327-.6,1.062-1.129-.266-.464-1,.133-1.527.266a10.633,10.633,0,0,0-3.12,1.261,22.848,22.848,0,0,1-9.559,2.855,29.831,29.831,0,0,1-9.094-.332c-.265-.067-.663.066-.663-.4,0-.4.265-.531.6-.664a2.744,2.744,0,0,1,1.261-.132,3.981,3.981,0,0,0,4.249-1.859A2.138,2.138,0,0,1,55,115.847a42.878,42.878,0,0,0,11.285-.6C68.214,114.717,70.139,114.32,72.131,113.788Z"/><path class="c" d="M56.8,114.187c-.664-.067-1.793.4-2.456-.133-.6-.531-.133-1.66-.2-2.59a4.463,4.463,0,0,0-3.65-4.38,7.7,7.7,0,0,0-6.9,1.792,4.682,4.682,0,0,0-1.527,2.788c-.133.6-.4.73-.863.464a28.984,28.984,0,0,1-3.717-2.057.831.831,0,0,1-.4-.73,6.3,6.3,0,0,1,2.257-4.979C44.1,100.183,46.741,99,49.1,97.99c.2-.066.531-.266.531.133a5.444,5.444,0,0,0,1.593,3.12c1.327,1.725,2.721,3.385,4.049,5.111a8.03,8.03,0,0,0,9.824,1.859,16.626,16.626,0,0,0,5.642-4.846c.465-.6.731-.6,1.262-.2a3.814,3.814,0,0,1,1.327,3.983c-.265,1.527-.663,3.054-.929,4.581-.066.464-.4.531-.73.6C65.924,113.391,62.279,114.187,56.8,114.187Z"/><path class="c" d="M181.193,108.213c.2,2.389-.531,5.044-.8,7.766-.066.8-.795,1.062-1.925.929-.929-.066-.73-.8-.663-1.261a15.11,15.11,0,0,0,.265-3.452c.067-.731-.664-1.394-.8-2.257-.067-.4-.93-.265-1.327-.331-1.262-.134-2.523-.2-3.785-.266-1.348-.15-.71,1.1-1.526,1.593a.821.821,0,0,1-1.327-.8c.2-.929-.332-1.062-1.129-1.062q-2.889.1-5.776,0c-.6,0-.929.133-.863.8.067.73-.331,1.062-1.128,1-1.128-.067-2.323-.067-3.452-.2-.664-.067-.863-.4-.8-1a.963.963,0,0,1,.132-.465c.332-.731-.4-1.858.6-2.257a6.779,6.779,0,0,1,2.323-.265c4.912-.266,9.759-.8,14.67-.73.664,0,.863-.266,1.063-.8.6-1.459.6-1.459,2.123-1.26a28.281,28.281,0,0,0,3.319.4.822.822,0,0,1,.864.929C181.193,106.154,181.193,107.018,181.193,108.213Z"/><path class="c" d="M99.28,43.292c.266.133.664-.4.929.067a5.713,5.713,0,0,1,.6,1.792c.066.266-.2.266-.332.4a2,2,0,0,0-.8,2.589c.332.93-.066,1.394-1.062,1.2a1.9,1.9,0,0,0-2.19,1.2c-.531,1.062-1.062,1.062-1.792.133a1.923,1.923,0,0,0-2.125-.863.991.991,0,0,1-1.128-1.261,2.649,2.649,0,0,0-.6-2.921,1.169,1.169,0,0,1,.4-1.859,1.933,1.933,0,0,0,1.261-1.925,1.025,1.025,0,0,1,.6-1.062c.4-.2.664.133.93.332a1.279,1.279,0,0,0,2.124-.332c.265-.4.465-.8,1-.4.4.265,1.128.265.863,1.2A1.272,1.272,0,0,0,99.28,43.292ZM96.16,46.28c0-.863-.265-1.2-.995-1.2-.664,0-1,.265-1,.929a1.084,1.084,0,0,0,1.062,1.2A.812.812,0,0,0,96.16,46.28Z"/><path class="c" d="M85.473,76.35c.4-.066.664.266.863.73,1.859,4.647,3.983,9.161,6.041,13.675a1.2,1.2,0,0,1-.6,1.725c-.664.465-1.062-.066-1.46-.6-2.722-3.651-4.979-7.567-7.5-11.351-.4-.6-.8-1.128-1.195-1.726-.266-.4-.266-.863.133-1.062,1.128-.4,2.124-1.128,3.252-1.527C85.075,76.35,85.207,76.35,85.473,76.35Z"/><path class="c" d="M43.786,117.971c-.066.663-.133,1.062-1,.862a52.3,52.3,0,0,1-7.7-2.589c-.664-.265-.73-.53-.2-1a5.3,5.3,0,0,0,1.726-2.853c.066-.466.266-.664.73-.332a13.028,13.028,0,0,0,3.983,1.925c.133.066.332.2.332.332a9.657,9.657,0,0,0,1.726,2.854A1.31,1.31,0,0,1,43.786,117.971Z"/><path class="c" d="M65.493,89.692A1.816,1.816,0,0,1,67.218,87.9a2.11,2.11,0,0,1,2.125,1.925,2.2,2.2,0,0,1-1.925,2.058A2.226,2.226,0,0,1,65.493,89.692Z"/><path class="c" d="M119.658,87.3a1.308,1.308,0,0,1,1.328-1.394,1.6,1.6,0,0,1,1.66,1.261,1.844,1.844,0,0,1-1.593,1.726A1.591,1.591,0,0,1,119.658,87.3Z"/><path class="c" d="M110.5,88.033c0-.664.465-1,1.129-1.062a1.356,1.356,0,0,1,1.327,1.194,1.419,1.419,0,0,1-1.327,1.262A1.284,1.284,0,0,1,110.5,88.033Z"/><path d="M108.507,137.088a2.049,2.049,0,0,1,1.327,1.526,1.475,1.475,0,0,1-.664,1.859c-1.393.8-2.721,1.66-4.182,2.323-9.159,4.315-17.989,9.227-27.016,13.94-3.784,1.925-7.634,3.718-11.351,5.642a5.555,5.555,0,0,1-4.581.266c-2.655-.929-5.244-2.058-7.9-2.854-6.571-1.991-12.878-4.78-19.382-7.169-12.213-4.458-13.423-4.248-14.4-5.51-.266-.4-.531-.8-.332-1.261a2.955,2.955,0,0,0-.067-2.257c-9.108-25.96-11.146-30.147-14.67-43.612-.065-.4-.2-.8-.265-1.128a1.686,1.686,0,0,1,1.46-1.992c6.705-1.2,13.475-2.522,20.18-3.584,7.176-1.121,9.151-1.836,24.76-3.917a.848.848,0,0,0,.8-.73,44.5,44.5,0,0,1,1.925-5.709,18.5,18.5,0,0,1,6.9-8.032,8.412,8.412,0,0,1,5.045-1.062,20.782,20.782,0,0,1,8.165,2.191A8.455,8.455,0,0,1,79.3,84.183c0,1.726-.464,3.518-.464,5.177a13.309,13.309,0,0,1-.863,3.386,21.882,21.882,0,0,1-2.721,7.434,6.58,6.58,0,0,1-2.922,2.257,4.86,4.86,0,0,1,1.66,5.311c-.531,2.323-.531,4.713-1.2,7.036a1.249,1.249,0,0,0,1.261-.73,9.736,9.736,0,0,0,.664-1.461c.532-1.062.8-1.194,1.925-.73a.96.96,0,0,0,1.262-.265,8.847,8.847,0,0,0,1.858-2.589,5.294,5.294,0,0,1,4.846-3.253,1.309,1.309,0,0,0,1.2-.8c.995-1.793,2.124-3.519,3.186-5.244,1.207-2.172.926-3.484,3.12-3.253,2.19.2,4.381.4,6.5.6a18.114,18.114,0,0,0,7.036-.8c.4-.133.863-.465,1.195,0s0,.863-.265,1.261q-.7,1.095-1.394,2.191a.62.62,0,0,0,0,.863c2.124,2.389,2.854,5.376,3.119,8.5.067.6.067.863.8.6.6-.266,1.061.066,1.327.664a7.024,7.024,0,0,0,1.726,2.389c-.73-4.115,1.194-7.1,3.783-9.691a4.428,4.428,0,0,0,1.328-4.78,12.062,12.062,0,0,1-.332-2.655c0-.531-.2-.73-.73-.73a8.943,8.943,0,0,1-1.859-.266c-2.854-.663-4.381-2.389-4.713-5.509a39.193,39.193,0,0,1-.265-8.829c.1-1.667-.313-3.66,1.792-5.576a14.16,14.16,0,0,1,3.917-2.522c.4-.133.53-.332.4-.8-.465-3.053-.6-6.173-.929-9.293-.2-2.191-.2-4.381-.6-6.505a4.832,4.832,0,0,1,4.646-5.51c1.926-.133,3.785-.066,5.643-.133,7.767-.331,15.533-.73,23.3-.531,14.422.247,16.423.017,36.509.93a58.1,58.1,0,0,1,5.842.6,6.822,6.822,0,0,1,3.187,1.328A5.157,5.157,0,0,1,195,56.7c-.066,4.448-.332,8.9-.464,13.343-.2,5.509-.266,11.019-.532,16.528-2.178,59.255-2.384,69.73-3.783,75.076-.6,2.058-1.726,2.987-3.85,2.722-6.174-.73-12.413-.8-18.653-.929-7.1-.2-14.206-1-21.308-1.262-3.306-.174-12.553-.508-16.2-1.46a3.6,3.6,0,0,1-2.854-3.252c-.266-1.926-.664-3.784-.995-5.642-.068-.532-.267-.93-1-.93-3.121-.2-6.241-.73-9.427-.664-.8,0-1-.4-1.128-1.062-1.062-3.784-1.992-7.7-2.92-11.55-.133-.531-.2-.531-.731-.465C110.3,137.221,109.437,137.088,108.507,137.088Zm20.909-49.852a10.5,10.5,0,0,0,2.191-2.39,6.5,6.5,0,0,0-1.195-8.363c-.2-.2-.664-.266-.4-.664.265-.332.531-.067.8.132,5.063,3.7,2.629,11.444-3.253,13.077-.2.067-.4.133-.332.4s.266.265.465.132l1.393-.6c1.4-.465,1.992-.266,2.59,1.128.75,1.5.758,2.453,1.792,2.324,2.414-.362,3.768,1.566,6.239,2.389a5.925,5.925,0,0,1,3.718,3.187,1.171,1.171,0,0,0,1.328.73c3.916-.133,7.833-.066,11.748-.133,12.745-.4,22.827.017,27.084-.4,2.124-.2,3.252-1.062,3.451-2.855.231-1.61,1.222-11.008,1.4-16.263.066-4.381.664-8.762.465-13.143a6.909,6.909,0,0,0-.465-2.323,1.3,1.3,0,0,0-1.262-.93c-7.169-.265-14.4-.6-21.573-.8-7.5-.2-15.069,0-22.57-.266-6.837-.265-13.673.332-20.511-.2-3.427-.285-2.682.771-2.39,6.97.067.73-.265,1.726.133,2.191.4.531,1.461.132,2.19.2,1.18,0,1.857.148,2.391-.332a6.957,6.957,0,0,1,8.3-1.328c.464.2,1.328.266,1.2.93-.12.719-.781.464-1.25.457-.235,0-.368.082-.161.246,1.212.956,1.2.976.68,2.417-.066.132,0,.265,0,.4a1.316,1.316,0,0,1-.928,1.46,1.965,1.965,0,0,1-1.731.138.162.162,0,0,1,.054-.31c.7-.043,1.655-.469,1.742-1.089.076-.6-.866-1.129-1-1.129-.265-.132-.4-.265-.332-.531.133-.265.4-.265.664-.2a3.117,3.117,0,0,0,1.128.266c-.729-.93-.8-1-2.655-1.527-.266-.066-.6-.133-.6-.465,0-.5.328-.276,2.456-.663-2.522-1.2-4.646-.531-6.837.8a3.67,3.67,0,0,1,.531.332,1.085,1.085,0,0,0,1.594.2,2.72,2.72,0,0,1,1.691-.293.117.117,0,0,1,.1.105c.015.189-.211.076-1.657.719-.4.133-.864.266-.864.8a.852.852,0,0,1-.664.8c-.4.067-.6-.265-.73-.531a2.682,2.682,0,0,0-2.257-1.2,23.586,23.586,0,0,0-3.783.4,13.419,13.419,0,0,0-6.7,2.389c-1.26.93-2.721,1.859-2.721,3.651a17.473,17.473,0,0,0,.2,2.523,2.165,2.165,0,0,1,2.39-1,.848.848,0,0,1,.67.738.117.117,0,0,1-.166.115c-1.684-.763-2.96,1.028-2.96,1.8A34.565,34.565,0,0,0,110.7,88.3c.465,3.253,1.727,4.647,4.78,5.045a13.029,13.029,0,0,0,4.249,0,1.4,1.4,0,0,1,1.526.4c.4.6.73.4,1.194.067a20.119,20.119,0,0,1,4.581-2.788c-.133-.332-.2-.664-.332-.93a1.554,1.554,0,0,1,.531-2.323,4.371,4.371,0,0,0,1.327-1.925c.267-.73.531-1.659-.331-1.925-.8-.265-1.262.531-1.328,1.328,0,.265-.133.4-.4.332-.266,0-.332-.2-.4-.4a2.529,2.529,0,0,1,1.527-2.124c.864-.265,1.46.133,1.859,1.062A4.146,4.146,0,0,1,129.416,87.236Zm-2.256,63.593c.531,2.389,1,4.712,1.46,6.97a2,2,0,0,0,1.527,1.526,17.43,17.43,0,0,0,4.514.8c3.784.4,7.5.664,11.285.73,4.978.132,9.957.863,15,1,7.9.267,15.8.6,23.632.863a4.076,4.076,0,0,1,1.261.133c1.726.465,2.655,0,3.119-1.725a48.015,48.015,0,0,0,1.13-8.7c.4-5.443.6-10.885.663-16.329.066-5.576,2.124-68.173,2.92-79.192.266-3.252-.863-4.182-3.915-4.845a38.218,38.218,0,0,0-6.241-.664c-50.977-2-46.294-.4-63.924-.4a7.537,7.537,0,0,0-2.124.4,3.756,3.756,0,0,0-2.389,3.85c.8,4.846.862,9.758,1.328,14.67.132,1.593.065,1.527,1.725,1.327.863-.132.93-.464.93-1.194,0-1.925-.4-3.85-.4-5.775.067-3.585,1.128-3.85,3.718-3.784,1.725.066,3.451.265,5.177.2,7.5-.2,15-.133,22.5.066,9.407.272,10.5-.181,31.531.6a33.832,33.832,0,0,0,5.177.2,2.844,2.844,0,0,1,2.788,1.859,8.931,8.931,0,0,1,.532,3.186c0,5.111-.466,10.156-.6,15.2-.065,4.647-.729,9.227-1.194,13.873a3.677,3.677,0,0,1-2.589,3.319,10.2,10.2,0,0,1-3.386.664c-8.191.076-31.7.421-37.77.2.266.664.332,1.262.532,1.793a3.82,3.82,0,0,1,.265,2.588,2.924,2.924,0,0,0-.133,2.125,33.163,33.163,0,0,1,2.257,7.567c.332,1.395.332,1.328,1.793,1.128,1-.132,1.194-.531,1.194-1.393,0-.664.133-1.328.2-1.991.133-.8.531-1.262,1.4-1.129l2.588.2c.93.132,1.527.066,1.394-1.129a3.364,3.364,0,0,1,.2-1.394c.065-.4.264-.862.729-.8,1,.132.863-.531.863-1.129,0-1.2.133-1.394,1.328-1.394,1.128,0,2.257.067,3.386,0,1.327-.066,1.393-.066,1.393,1.261,0,.6.133.8.8.731a82.116,82.116,0,0,1,9.027-.4c1.86,0,1.86.067,2.257-1.726.2-.862.6-1.128,1.394-.929a21.827,21.827,0,0,0,5.51.332c.8,0,1.062.4,1,1.129-.266,1.726-.6,3.451-.863,5.177s-.464,3.519-.731,5.244c.463,0-.711.213,2.789-.6,1.592-.4,2.057.066,1.991,1.726-.2,3.85-.93,18.852-1.129,22.436a1.35,1.35,0,0,1-.6,1.062c-4.139,2.886-9.732,6.991-18.653,12.745a6.785,6.785,0,0,1-4.647,1c-3.252-.4-6.438-.863-9.69-1.195-4.315-.465-8.63-1-12.945-1.327C135.458,151.426,131.342,151.161,127.16,150.829Zm-18.985-12.547c-1.129-.4-1.793-1-2.721-.929-3.85.067-7.7.664-11.551.929a1.74,1.74,0,0,1-1.859-1c-.862-1.66-1.726-3.253-2.589-4.912a2.371,2.371,0,0,0-1.393-1.262c-5.245-1.659-10.488-3.053-15.8-4.381a2.472,2.472,0,0,0-2.059.266c-7.706,4.343-13.574,5.819-27.68,11.152-4.115,1.593-8.165,3.386-12.413,4.845a75.758,75.758,0,0,1-8.3,1.992c.1.042,22.435,8.095,26.618,9.426,5.31,1.659,10.421,3.983,15.8,5.709a2.04,2.04,0,0,0,1.859,0c6.107-3.585,12.48-6.638,18.653-10.024C91.706,146.32,100.2,142.606,108.175,138.282Zm4.447-1.261c.93,3.253,1.793,6.373,2.722,9.559.2.8.265,1.859.731,2.323.6.531,1.659.133,2.521.2a1.822,1.822,0,0,1,.6.067c5.177.59,16.676,1.063,24.693,1.792,3.983.4,7.9.864,11.882,1.328,2.258.265,4.514.4,6.7.863.929.2,1.062-.067,1.062-.863,0-1.374,1.628-29.135,1.66-29.606.066-1.261.133-1.327-1.195-1.327-4.846,0-9.692.066-14.538,0-.729,0-1,.132-1.128.862a5.85,5.85,0,0,1-4.248,4.78c-1.262.4-2.589.8-3.917,1.128-2.788.73-5.443,1.925-8.3,2.191a6.958,6.958,0,0,0-3.584,1.327,5.684,5.684,0,0,1-3.85,1.063,24.2,24.2,0,0,0-7.833,1c-.465.133-.664.2-.53.664a1.646,1.646,0,0,1-.664,1.792C114.68,136.955,113.552,136.623,112.622,137.021Zm-7.367-19.449c.4.465.663.4.863.332,1.194-.067,2.456-.133,3.65-.2.929-.066,1.593,1,2.589.73a1,1,0,0,1,.265.6c.4,1.992.863,3.983,1.195,6.041.067.464.2.6.664.6a11.635,11.635,0,0,1,3.386.2c.132.067.332-.066.464-.132,4.825-2.555,8.105-6.359,17.524-8.3.332-.066.664-.132.73.266.067.332-.331.332-.531.4a41.806,41.806,0,0,0-12.944,5.576c-.2.133-.863.2-.332.73.863.929,1.793,1.859,2.59,2.855.8.929,1.991,1.526,2.522,2.655.133.265.4.265.663.132a20,20,0,0,1,4.78-1.127c3.12-.6,6.173-1.727,9.294-2.391a6,6,0,0,0,4.845-5.377,12.545,12.545,0,0,0-.2-4.978c-.8-3.319-1.327-6.7-2.921-9.758a1.232,1.232,0,0,1,.067-1.261,3.5,3.5,0,0,0,.132-2.589c-.4-1.261-.863-2.456-1.328-3.717a4.424,4.424,0,0,0-2.854-2.788c-3.928-1.31-4.361-3.279-6.837-2.987a1.723,1.723,0,0,1-1.858-1.2c-.266-.6-.531-1.129-.8-1.726-.2-.332-.4-.664-.863-.531l-1.792.6a.348.348,0,0,0-.266.531c.2.266.133.863.532.73.531-.132.464.067.332.332a20.354,20.354,0,0,1-4.183,5.908,2.337,2.337,0,0,1-2.92.266c-.266-.2-.664-.531-.4-.8.532-.531.067-.8-.066-1.128a2.8,2.8,0,0,0-1.195,2.057c-.285,1.847-1.539,2.735-4.78,7.237a9.814,9.814,0,0,0-1.792,3.517c-.8,3.585-.465,5.178,2.987,6.7a10.162,10.162,0,0,1,3.8,2.577.468.468,0,0,1-.625.685c-2.3-1.574-4.543-3.115-6.828-4.656C111.626,118.1,108.374,117.572,105.255,117.572Zm-44.21,12.745c5.974-2.523,11.551-5.908,17.193-9.161a9.6,9.6,0,0,1-1.793-4.381,14.471,14.471,0,0,1-.066-3.385c0-.266.066-.6-.266-.664-.283-.07-.358.222-1.062,1.859a2.341,2.341,0,0,1-1.925,1.394,8.018,8.018,0,0,0-4.448,1.992c-.2.2-.531.6-.8.2-.265-.332.067-.664.332-.862a16.752,16.752,0,0,1,3.252-2.058c.532-.2.731-.4.731-.929a28.069,28.069,0,0,1,1.327-7.767,3.137,3.137,0,0,0-1.128-3.319c-.332-.266-.531-.4-.863.066a26.13,26.13,0,0,1-5.443,5.378,3.606,3.606,0,0,1-2.722.8,10.849,10.849,0,0,1-4.514-1.394,29.046,29.046,0,0,1-7.965-6.837,7.747,7.747,0,0,1-1.129-1.858c-.6-1.394-.6-1.461-2.057-1.129s-3.121.6-4.183,1.66c-1.791,1.793-3.65,3.385-5.442,5.112a5.278,5.278,0,0,0-1.594,3.716v3.718a2.927,2.927,0,0,1-1.527,2.788,13.176,13.176,0,0,0-2.19,1.593,3.926,3.926,0,0,0-1.527,3.518c.551,5.508-.5,7.1-.6,10.223a6.814,6.814,0,0,0,2.19,5.575c.93.863,1.992,1.4,2.987,2.191a2.2,2.2,0,0,0,2.59.265c6.638-2.788,13.342-5.376,20.246-7.567a1.248,1.248,0,0,0,.862-.464c5.278-6.983,5.6-10.216,7.966-18.653.133-.332.133-.8.6-.731.79.113.151,1.2-.2,3.651C66.82,120.426,65.028,125.869,61.045,130.317Zm-24.76,9.16c-.664-.332-1.128-.6-1.593-.8-3.916-1.925-5.443-4.979-4.514-9.227a19.731,19.731,0,0,0,.2-9.028,3.586,3.586,0,0,1,.731-3.252,9.205,9.205,0,0,1,3.584-2.788,2.1,2.1,0,0,0,1.327-2.191c-.066-.6-.066-1.194-.132-1.792-.4-2.721-.067-5.178,2.389-7.036,4.656-3.624,3.986-4.316,5.643-4.979a15.593,15.593,0,0,1,2.788-1c.332-.066.73-.132.73-.664a3.366,3.366,0,0,1,1-1.991c.464-.531.862-1.062,1.46-1.726-1.328.266-25.689,4.448-30.4,5.244-3.319.6-6.7,1.129-9.957,1.992-.663.2-.863.465-.663,1.129.332.928.464,1.858.8,2.721,6.428,17.254,6.675,19.561,9.027,25.888,1.66,4.249,2.789,8.762,4.514,13.01.332.731.6.864,1.262.532a13.885,13.885,0,0,1,2.787-1A80.387,80.387,0,0,0,36.285,139.477Zm149.953-23.366c-6.24,1.594-12.28,3.187-18.387,4.713-1.129.266-1.793.731-1.659,1.992.067.68-1.167,22.893-1.461,29.207,0,.332-.2.73.133.929.332.133.6-.2.862-.331,8.233-5.339,10.695-7.272,19.052-13.077a.736.736,0,0,0,.332-.663C185.176,137.486,186.039,119.431,186.238,116.111ZM67.949,99.185c-.067.4.464.531.2.8-.2.2-.464.066-.73-.066-1.992-1.245-3.25-4.238-4.115-6.041a28.066,28.066,0,0,1-2.987-13.342,2.6,2.6,0,0,1,.017-.367.285.285,0,0,1,.565.014,39.631,39.631,0,0,0,.944,6.261,4.275,4.275,0,0,1,.266-.664A8.441,8.441,0,0,1,65.294,81a10.6,10.6,0,0,1,7.168-2.057,3.307,3.307,0,0,1,2.855,1.526,8.106,8.106,0,0,1,1.062,6.174A1.909,1.909,0,0,0,77.64,89.1c.4.2.531.066.6-.266.2-.929.4-1.792.53-2.721a9.336,9.336,0,0,0-3.717-8.431A18.522,18.522,0,0,0,64.3,74.757a5.835,5.835,0,0,0-3.386,1.194A22.011,22.011,0,0,0,53.345,87.3a21.882,21.882,0,0,1-4.314,8.364c-.134.133-.2.332-.332.465-.266.332-.2.6.2.6a2.593,2.593,0,0,1,1.992,1.859c1.991,5.112,6.04,7.767,11.086,9.161a4.016,4.016,0,0,0,2.92.132,11.62,11.62,0,0,0,4.713-3.651,18.217,18.217,0,0,1,2.456-2.588c.6-.531,1.394-.8,1.925-1.328a4.769,4.769,0,0,0,1.792-3.385c.067-1.66.863-3.187,1.195-4.78-.8,0-1,.465-1.195,1a41.869,41.869,0,0,1-2.19,4.978,2.473,2.473,0,0,1-2.39,1.394A7,7,0,0,1,67.949,99.185Zm42.815,29.739c-1.626,0-3.026.244-3.253-.664-.133-.466.266-.731.6-.93a8.585,8.585,0,0,1,2.721-1.062c.465-.067.664-.266.332-.8a16.821,16.821,0,0,1-1.792-4.713c-.067-.265-.2-.6-.6-.531-2.191.2-4.448.067-6.638.332-3.851.6-7.767.465-11.684,1a.948.948,0,0,1-1.128-.465c-.73-1.527-1.859-1.593-3.187-1a2.436,2.436,0,0,1-.995.067c-.8.066-.929.4-.531,1.129,2.987,4.911,5.31,10.155,7.9,15.267a1.084,1.084,0,0,0,1.194.73c2.921-.133,5.776-.8,8.7-.863a46.839,46.839,0,0,1,6.837-.133.592.592,0,0,0,.73-.332c.2-.464.465-.929.8-1.527a14.215,14.215,0,0,1-2.323,1.063c-.332.067-.664.2-.93-.133s0-.6.133-.93c.465-.8,1.262-1.394,1.793-2.189a19.006,19.006,0,0,0-2.059.928c-.265.133-.6.4-.863,0-.265-.332,0-.664.133-.928.332-.4.664-.8,1.062-1.2C108.639,130.383,109.569,129.719,110.764,128.924ZM82.419,115.647c3.225-.921,8.057-.315,11.019-.6a23.658,23.658,0,0,1,6.506.2c.664.132.863-.067.8-.731a20.186,20.186,0,0,1,.929-7.7c.267-1,.4-1.791-.53-2.522a1.229,1.229,0,0,1-.465-1.593c.4-.663,1.062-.6,1.659-.531.266,0,.6.2.73-.2a18.243,18.243,0,0,1,2.524-4.581,1.477,1.477,0,0,0-.93,0c-5.578,1.116-7.88.222-12.613.332-.4,0-.8-.133-1.062.332-1.128,2.523-3.053,4.58-4.314,7.036a5.734,5.734,0,0,0-.8,2.191,2.188,2.188,0,0,0,.663,0c.664-.2,1.328-.265,1.593.465.52,1.43-1.475,2.195-3.054,2.721-.265.067-.53.133-.6.4A21.184,21.184,0,0,1,82.419,115.647Zm68.106,4.713h4.05c3.784.066,7.634-.465,11.418,0,.2,0,.4-.066.6-.066,2.258-.6,4.514-1.262,6.771-1.926.4-.132.73-.265.863-.729.6-2.059,1.262-4.183,1.926-6.24.2-.532,0-.6-.466-.664-3.141-.208-3.629-.787-4.048.332-.4,1.593-.465,1.526-1.992,1.46-5.709-.266-11.417-.465-17.126-.929-.4-.067-.731-.067-.731.531C151.521,114.85,151.057,117.572,150.525,120.36Zm-73.4-29.332a.464.464,0,0,0,.2-.826c-.642-.487-2.254-1-2.134-3.032a13.331,13.331,0,0,1,.2-1.593c.532-2.058-.332-3.784-1.46-5.311a1.96,1.96,0,0,0-1.461-.73,8.293,8.293,0,0,0-6.306,2.191c-2.456,2.124-4.58,4.513-3.319,8.3a48.184,48.184,0,0,0,2.921,6.837,1.253,1.253,0,0,0,.8.73c1,.266,1.925.6,2.987.8A3.873,3.873,0,0,0,72,98.454c.4-.2.995-.531.531-.995C71.068,96,71,94.14,71.068,92.281c0-.332-.132-.73.266-.863.332-.133.6.066.93.266.6.4,1.194.8,1.791,1.261.465.332.73.4.93-.266a2.433,2.433,0,0,1,1.792-1.593C76.886,91.064,77,91.05,77.121,91.028Zm-25.635-.805c-1,.133-1.859.332-2.787.4-5.851.871-11.064,1.353-21.707,3.584-5.311,1.128-10.687,1.859-16,2.854a22.208,22.208,0,0,0-4.182.8c-.6.265-.73.6-.6,1.261,4.8,18.178,9.092,27.192,13.873,42.284.266.731.465,1.527.731,2.257.2.664.73.664,1.261.532.73-.2.265-.6.132-.93-.265-.73-.6-1.393-.8-2.124-2.39-7.435-5.178-14.8-7.567-22.238-1.859-5.775-4.249-11.417-5.974-17.191-.4-1.395-.2-1.86,1.328-2.258,4.543-1.278,17.312-3.219,39.429-7.169C49.827,92.082,51.354,92.215,51.486,90.223Zm36.841,39.961c-2.774-5.853-2.194-4.388-4.248-8.5-.664-1.327-.266-2.057,1.2-2.256a21.8,21.8,0,0,1,4.249-.464,67.1,67.1,0,0,0,10.885-.6,24.327,24.327,0,0,0,4.315-.464c-1-1.593-2.39-2.855-3.054-4.912a3.362,3.362,0,0,0,.067,1.66c.265,1.26-.132,1.791-1.394,1.659a45.26,45.26,0,0,0-6.7-.2c-2.655.133-5.376,0-8.032,0a1.85,1.85,0,0,0-1.792.864c-.981,1.526-3.24,1.845-5.377,2.456.134.265.134.531.266.663.6.8.4,1.394-.4,1.925-1.6,1.2-.377.545-5.975,3.784C77.773,127.064,83.017,128.458,88.327,130.184Zm88.75-12.877a7.939,7.939,0,0,1,.93-.2c1.327-.2,2.057-.6,2.19-2.257.2-2.987.8-5.974,1.195-8.895.146-1.155-.99-.34-3.252-.863-.664-.2-1.063-.065-1.195.863-.2,1.66-.531,1.727-2.191,1.727a140.839,140.839,0,0,0-15.864.729c-1.727.133-1.727.2-1.992,1.859-.067.6.066.863.73.863a22.41,22.41,0,0,1,3.651.133c.465.067.6-.2.531-.6-.066-1,.532-1.2,1.4-1.129q2.488.2,4.978.2c.862,0,1.261.332,1,1.195-.134.465-.067.6.464.664,1.626.164.547-2.506,2.124-2.191,1.593.332,3.253.266,4.846.531a1.927,1.927,0,0,1,1.726,2.655C177.941,113.988,177.542,115.58,177.077,117.307ZM111.361,135.76a10.661,10.661,0,0,0,2.124-1.659,4.939,4.939,0,0,1,2.059-1.394c1.659-.332,3.384-.731,5.044-1,.6-.067.6-.266.332-.664-.863-1.394-1.793-2.722-2.721-4.049a1.355,1.355,0,0,0-1-.531,16.487,16.487,0,0,0-5.111.4,7.682,7.682,0,0,0-3.386,1.2c.4.4.6.3,3.584.066.332,0,.8-.2.93.332.066.531-.4.531-.731.664a12.826,12.826,0,0,0-4.247,2.921,1.559,1.559,0,0,0,1.128-.4,15.085,15.085,0,0,1,2.855-1.128c.264-.066.6-.265.8.133.133.332-.2.464-.4.6a11.343,11.343,0,0,0-3.452,3.185c1.395-.73,2.788-1.526,4.116-2.323.266-.2.6-.4.863-.066s-.066.6-.332.8A9.171,9.171,0,0,0,111.361,135.76ZM83.017,116.443c-.408.2-1.4.563-1.726.067-.332-.465.132-.863.332-1.261a24.736,24.736,0,0,0,2.19-4.647c.067-.332.332-.465.664-.6a7.506,7.506,0,0,0,2.788-1.461.548.548,0,0,0,.2-.53c-.066-.266-.332-.2-.531-.134a23.178,23.178,0,0,0-4.182,1.2c-.332.133-.664.73-.929.266-.332-.531.265-.73.664-.863a12.871,12.871,0,0,1,2.257-.8.718.718,0,0,0,.531-.864c-.066-.265-.465-.132-.664-.132a4.525,4.525,0,0,0-3.85,2.721,7.683,7.683,0,0,1-2.854,3.319c-.332.2-.664.465-.6.93a17.585,17.585,0,0,0,.73,4.912c.066.265.066.4.465.265A14.747,14.747,0,0,0,83.017,116.443Zm21.706-15.533c-1.771,2.912-.119.39,2.191,5.776.066.2.332.464,0,.664-.266.132-.465-.133-.664-.332-.531-.731-1.062-1.461-1.527-2.191a5.014,5.014,0,0,0-2.455-1.925c-.332-.133-.8-.266-1.063.133-.265.332.2.6.332.863.2.331.6.531.863.8.531.464,1.261.862,1.327,1.725v2.342a.2.2,0,0,1-.386.092c-.448-.89-.281-1.928-.609-2.965a15.3,15.3,0,0,0-.929,3.518c-.067.531-.465,1.2,0,1.594.729.6,1.327,1.526,2.389,1.659a10.821,10.821,0,0,0,3.518-.531c.266-.067.664-.2.4-.6a3.829,3.829,0,0,1-.266-2.589C107.976,105.823,106.118,103.5,104.723,100.91ZM64.43,161.516c-.4-.133-.6-.266-.8-.332-4.846-1.527-9.493-3.452-14.271-5.244-4.714-1.726-9.56-3.054-14.272-4.979-4.448-1.859-9.029-3.385-13.542-5.045-.2-.066-.465-.332-.73-.066-.266.332-.067.664.132.929a2.273,2.273,0,0,0,1.2.6c10.238,2.792,24.222,8.935,32.194,11.351,2.721.8,5.443,1.925,8.164,2.854A1.99,1.99,0,0,0,64.43,161.516Zm44.476-22.039c-.332-.2-.532,0-.8.133-25.406,12.7-13.525,6.585-41.887,21.441-.331.2-.8.332-.8,1C80.1,154.678,94.235,146.646,108.906,139.477Zm3.252-14.935c-.6-1.925-1.2-3.85-1.793-5.842-.132-.464-.531-.4-.8-.332-1.184.222-12.141.861-13.343.93a25.2,25.2,0,0,1-6.7,0c.331.929.862,1.46,1.858,1.195a10.778,10.778,0,0,1,2.057-.2c5.178.066,10.223-.863,15.335-1.195,1.26-.067,1.46.066,1.792,1.261A10.337,10.337,0,0,0,112.158,124.542ZM105.6,113.521a.279.279,0,0,0-.119.4,28.353,28.353,0,0,1,1.563,2.59c.067.332.4.265.6.2.447-.055.894-.159,1.381-.269a.182.182,0,0,0,.1-.291,6.98,6.98,0,0,1-1.35-1.963C107.36,113.117,106.7,113.008,105.6,113.521Zm20.163,15.535c-1.194-1.726-1.194-1.726-2.854-.863l-1.593.8c-.2.067-.664.067-.332.531.2.266.2.664.664.6C123.045,129.786,124.372,129.388,125.765,129.056Zm24.428-13.21c-3.262.729-1.659-.289-1.659,4.248,0,.465.4.332.664.332s.464,0,.464-.332C149.662,118.635,150.193,117.307,150.193,115.846Zm-42.169-2.891a.364.364,0,0,0-.011.457l1.821,2.368c.133.2.266.531.6.265a2.717,2.717,0,0,0,1-1.327c.066-.4-.531-.465-.731-.73-1.522-1.527-1.086-1.166-1.342-1.347C108.925,112.338,108.5,112.4,108.024,112.955Zm-1.865,3.835a.207.207,0,0,0,.112-.338c-1.051-1.217-1.4-3.078-3.288-3.195a.2.2,0,0,0-.182.288,17.263,17.263,0,0,0,1.192,2.1C104.731,117,104.786,117.1,106.159,116.79ZM117.867,95c.464,1.46.332,2.987.729,4.58.134-.2.2-.266.2-.4.2-1.394.4-2.855,1.726-3.718.2-.133.132-.332.066-.531a.648.648,0,0,0-.6-.265C119.327,94.8,118.6,94.87,117.867,95Zm42.283,10.82h-.928c-.731.066-.4.6-.466,1s0,.664.466.6c1.128-.133,2.256-.266,3.451-.4.4-.067.4-.4.4-.664.066-.4-.2-.4-.53-.4C161.744,105.955,160.947,105.889,160.15,105.823ZM71.865,92.679c.133,1.593.2,2.987,1.327,4.249.332-.8.664-1.527,1-2.257.133-.266.266-.531-.133-.73C73.325,93.542,72.661,93.144,71.865,92.679Zm111.12,12.546a.729.729,0,0,1-.332-.066,12.5,12.5,0,0,0-.6,3.053c-.4,2.324-.73,4.713-1.062,7.037-.066.265-.266.8.2.8.531.066.266-.465.332-.8C181.857,112.992,182.852,106.354,182.985,105.225ZM166.257,111.4a9.841,9.841,0,0,1,1.395,0c.4,0,.531-.2.6-.532,0-.4-.332-.2-.531-.265-1.526-.4-3.12,0-4.647-.332-.465-.066-.332.332-.4.531-.132.332.066.4.332.4C164.067,111.266,165.129,111.333,166.257,111.4Zm-39.031,19.449c-.664-1-.664-.929-1.593-.73l-2.987.6c-.265.067-.664-.066-.664.332.067.332.4.4.731.4A13.2,13.2,0,0,0,127.226,130.848Zm-3.452-3.983c-.929-1.128-.929-1.128-2.057-.332-.465.332-.93.6-1.395.93-.265.2-.664.265-.332.73.266.332.4.531.864.265A17.873,17.873,0,0,1,123.774,126.865Zm53.5-15.666c-.664,2.058-1.327,4.182-1.991,6.24-.067.133-.067.266.132.332.546,0,.651-.209.8-.8l1.4-5.178A.5.5,0,0,0,177.277,111.2Zm-55.095,13.874c-.133-.132-.2-.266-.267-.266a.711.711,0,0,0-.729.067c-.6.464-1.262.863-1.859,1.327-.2.133-.6.133-.332.531.2.332.464.266.731.067.729-.531,1.393-1,2.124-1.461A1.81,1.81,0,0,1,122.182,125.073Zm-9.228-.067a.246.246,0,0,0,.2-.065c-.4-1.86-.8-3.651-1.2-5.51a.339.339,0,0,0-.4-.266c-.332,0-.2.266-.2.4C111.826,121.422,112.357,123.214,112.954,125.006Zm-3.047-13.684a.252.252,0,0,0-.443.037.529.529,0,0,0,.171.638c.6.6,1.129,1.194,1.726,1.725.133.133.332.464.532.133.2-.266-.133-.4-.267-.531A6.432,6.432,0,0,1,109.907,111.322Zm3.113,24.5a2.167,2.167,0,0,0,1.328-.066c.332-.133.332-.4.332-.664,0-.133.067-.332-.2-.4s-.4.2-.6.332C113.684,135.23,113.419,135.428,113.02,135.826Z"/><path d="M167.187,78.541a1.984,1.984,0,0,1,1.793,1.194c.264.6-.067,1.062-.532,1.527a1.1,1.1,0,0,1-.863.332c-7.97.118-27.123.9-31.2-.066-.664-.133-1.327-.332-1.327-1.2a1.418,1.418,0,0,1,1.46-1.394C144.74,78.1,158.54,78.148,167.187,78.541Z"/><path d="M121.388,72.869a18.888,18.888,0,0,0-1.928.959c-1.593.929-3.319,1.659-4.249,3.385a.242.242,0,0,1-.331.133c-.2-.133-.332-.266-.2-.531a4.484,4.484,0,0,1,.6-.93,13.807,13.807,0,0,1,5.873-3.352C121.732,72.368,121.877,72.629,121.388,72.869Z"/><path d="M116.406,92.679a3.992,3.992,0,0,1-1.526-.4.278.278,0,0,1-.2-.4.261.261,0,0,1,.4-.2c1.858.73,2.92-.531,3.915-1.66.2-.2.4-.664.731-.4.265.2,0,.6-.133.8A3.642,3.642,0,0,1,116.406,92.679Z"/><path d="M123.264,81.217a.205.205,0,0,1-.33.234c-1.87-1.86-2.765-2.227-4.8-1.052-.332.2-.4-.133-.4-.332,0-.464.4-.663.729-.863C119.972,78.392,122.443,79.506,123.264,81.217Z"/><path d="M116.871,89.028a3.025,3.025,0,0,1-1.925.863.666.666,0,0,1-.73-.4c-.266-.531,0-1,.265-1.46.332-.531.6-1.2,1.262-1.262.464-.066.4.332.264.6-.065.133-.331.2-.464.332-.331.4-.8.863-.6,1.261s.664-.066,1.061-.066A1.389,1.389,0,0,1,116.871,89.028Z"/><path d="M112.689,85.444c0,.332.067.8-.464.863-.465,0-.465-.4-.465-.73-.067-.73-.067-1.46-.067-2.191a.468.468,0,1,1,.929,0A19.593,19.593,0,0,1,112.689,85.444Z"/><path d="M119.658,83.917c.068-.332-.331-1.261.4-1.327s.465.929.6,1.46a4.948,4.948,0,0,1,0,1c0,.265,0,.6-.464.664-.4,0-.532-.266-.532-.6Z"/><path d="M124.443,73.812a.184.184,0,0,1,.309.188,5.348,5.348,0,0,1-1.841,2.483c-.2.132-.6.265-.8-.067-.133-.265.266-.332.4-.464A18.056,18.056,0,0,0,124.443,73.812Z"/><path d="M129.706,72.04a.151.151,0,0,1,.047.287,3.681,3.681,0,0,1-1.309.291.2.2,0,0,1-.111-.368A2.224,2.224,0,0,1,129.706,72.04Z"/><path d="M153.18,137.088a1.366,1.366,0,0,1,1.328,1.261c.115,1.136-.915,1.593-2.057,1.593-4.581.133-9.028-.465-13.608-.73-3.187-.2-11.285-.8-12.081-.863-.731-.067-1.394-.332-1.461-1.062-.066-.863.73-1.062,1.327-1.129,1.395-.066,2.855-.066,4.249-.066C135.492,135.8,148.7,136.761,153.18,137.088Z"/><path d="M136.917,116.244a6.687,6.687,0,0,1,3.718,4.182c.066.332.2.664-.2.73-.332.067-.332-.265-.4-.53a8.313,8.313,0,0,0-3.2-3.88C136.52,116.58,136.639,116.1,136.917,116.244Z"/><path d="M141.316,117.388a.284.284,0,0,1-.377.409,5.934,5.934,0,0,0-2.295-1.088c-.2,0-.332-.266-.266-.465.067-.265.331-.265.531-.265A3.115,3.115,0,0,1,141.316,117.388Z"/><path d="M46.641,120.891c1.2.465,1.327,1.46,1.2,2.522a10.615,10.615,0,0,1-.731,2.855c-.2.531-.863.929-1.261.73-.8-.4-1.394,0-2.058.2.217.76.99,2.165-.4,2.722a1.237,1.237,0,0,0-1,1.261c0,.664-.663,1-1.261,1.063a25.205,25.205,0,0,1-3.12.4,1.82,1.82,0,0,1-1.991-1.327,9.819,9.819,0,0,1,2.987-10.621c1.2-.93,2.788-.8,4.182-.8,1.062,0,.8-.928,1.2-1.394.4-.4,0-.6-.266-.73-3.85-2.455-2.854-7.036-.531-9.16a7.5,7.5,0,0,1,7.435-1.925,5.674,5.674,0,0,1,2.92,9.293,7.37,7.37,0,0,1-5.642,2.854.752.752,0,0,0-.863.6C47.172,119.962,46.906,120.426,46.641,120.891Zm-10.156,7.434a9.294,9.294,0,0,0,.4,2.722c.133.332.332.8.8.73,1.062-.133,2.125-.332,3.12-.53.266-.067.664-.2.6-.532-.2-1.062.663-1.327,1.327-1.527.8-.264.73-.663.465-1.194a4.986,4.986,0,0,0-.465-.8c-.4-.6-.133-.863.465-.929a2.577,2.577,0,0,0,1-.133c.464-.2.929-.4.929-1s-.4-.862-.863-1.062-1.261-.132-1.2-.8c0-.664.8-.8,1.261-1.063.067-.066.2-.066.266-.132.332-.132.8-.067.73-.6a.9.9,0,0,0-1-.8c-.73,0-1.46-.066-2.19,0a4.446,4.446,0,0,0-3.186,1.2A9.3,9.3,0,0,0,36.485,128.325ZM47.9,116.775a5.7,5.7,0,0,0,2.323-.4,4.415,4.415,0,0,0,2.855-3.651c.5-4-5.57-6.1-8.5-2.323a3.824,3.824,0,0,0,3.319,6.372Zm-3.518,6.439c.8.4,1.46.731,1.593,1.66.066.4-.266,1.062.2,1.128.531.067.4-.729.6-1.061a1.226,1.226,0,0,0,.133-.466c.067-.73.4-1.394.133-2.124-.2-.464-.8-.863-.863-.6C45.91,122.55,45.114,122.683,44.384,123.214Z"/><path d="M57.726,90.036a.128.128,0,0,1,.253-.029,83.771,83.771,0,0,0,3.733,12.941.155.155,0,0,1-.281.127A42.793,42.793,0,0,1,57.726,90.036Z"/><path d="M65.962,103.954a.128.128,0,0,1-.16.2c-1.577-.961-4.257-4.908-4.846-7.16a.2.2,0,0,1,.362-.152C62.788,99.3,64.019,101.851,65.962,103.954Z"/><path d="M70.078,84.336a3.737,3.737,0,0,1,2.982-3.008,1.085,1.085,0,0,1,1.327.8c.133.6-.464.863-.862,1A4.423,4.423,0,0,0,70.8,84.847C70.46,85.361,70,85.185,70.078,84.336Zm3.712-2.078a1.682,1.682,0,0,0-2.191.863C72.33,82.855,73.06,82.59,73.79,82.258Z"/><path d="M73.591,85.311a.511.511,0,0,1,.465.664c-.133.6-.4,1.261-.6,1.859a.566.566,0,0,1-.8.332c-.266-.2-.4-.4-.266-.73.2-.532.332-1.063.531-1.594A.789.789,0,0,1,73.591,85.311Z"/><path d="M47.5,109.009c.266,0,.6-.067.664.265s-.265.332-.464.332c-.8.2-1.262.863-1.859,1.262-.133.066-.266.332-.531.133C44.73,110.418,46.68,109.009,47.5,109.009Z"/><path d="M44.184,112.394c.133-.265.2-.729.6-.664.332.134.066.466,0,.73C44.441,113.824,44.075,112.723,44.184,112.394Z"/></svg>