<svg width="341" height="117" viewBox="0 0 341 117" fill="none" xmlns="http://www.w3.org/2000/svg">
<mask id="mask0_89_60" style="mask-type:alpha" maskUnits="userSpaceOnUse" x="0" y="0" width="114" height="117">
<rect width="113.993" height="116.281" fill="#D9D9D9"/>
</mask>
<g mask="url(#mask0_89_60)">
<path d="M18.9984 96.901C16.3861 96.901 14.1498 95.9521 12.2895 94.0545C10.4292 92.1568 9.49902 89.8756 9.49902 87.2109V29.0702C9.49902 26.4055 10.4292 24.1242 12.2895 22.2266C14.1498 20.3289 16.3861 19.3801 18.9984 19.3801H94.9935C97.6059 19.3801 99.8422 20.3289 101.702 22.2266C103.563 24.1242 104.493 26.4055 104.493 29.0702V87.2109C104.493 89.8756 103.563 92.1568 101.702 94.0545C99.8422 95.9521 97.6059 96.901 94.9935 96.901H18.9984ZM18.9984 87.2109H94.9935V38.7603H18.9984V87.2109ZM35.6223 82.3658L28.9728 75.5827L41.2032 62.9856L28.854 50.3885L35.6223 43.6054L54.6211 62.9856L35.6223 82.3658ZM56.996 82.3658V72.6757H85.4941V82.3658H56.996Z" fill="#FFFAF0"/>
</g>
<path d="M117.68 58.288C117.125 58.288 116.709 58.2027 116.432 58.032C116.155 57.8613 115.973 57.6267 115.888 57.328C115.824 57.0293 115.792 56.6987 115.792 56.336V37.872C115.792 37.5307 115.824 37.2213 115.888 36.944C115.973 36.6453 116.155 36.4107 116.432 36.24C116.709 36.048 117.147 35.952 117.744 35.952C118.192 35.952 118.523 35.984 118.736 36.048C118.971 36.0907 119.152 36.1653 119.28 36.272C119.408 36.3573 119.536 36.4747 119.664 36.624L127.472 47.536H126.736L134.576 36.592C134.725 36.4213 134.875 36.2933 135.024 36.208C135.173 36.1227 135.365 36.0587 135.6 36.016C135.835 35.9733 136.144 35.952 136.528 35.952C137.104 35.952 137.531 36.048 137.808 36.24C138.085 36.4107 138.256 36.6453 138.32 36.944C138.405 37.2427 138.448 37.5733 138.448 37.936V56.4C138.448 56.72 138.405 57.0293 138.32 57.328C138.256 57.6267 138.085 57.8613 137.808 58.032C137.531 58.2027 137.093 58.288 136.496 58.288C135.92 58.288 135.493 58.192 135.216 58C134.939 57.8293 134.757 57.5947 134.672 57.296C134.608 56.9973 134.576 56.6773 134.576 56.336V42.608L128.752 51.024C128.688 51.1093 128.592 51.2267 128.464 51.376C128.336 51.504 128.165 51.6213 127.952 51.728C127.739 51.8347 127.451 51.888 127.088 51.888C126.747 51.888 126.469 51.8347 126.256 51.728C126.043 51.6213 125.872 51.504 125.744 51.376C125.637 51.248 125.531 51.12 125.424 50.992L119.632 42.608V56.4C119.632 56.72 119.589 57.0293 119.504 57.328C119.44 57.6267 119.269 57.8613 118.992 58.032C118.715 58.2027 118.277 58.288 117.68 58.288ZM154.722 58.256C154.103 58.256 153.644 58.1387 153.346 57.904C153.047 57.6693 152.898 57.3493 152.898 56.944L153.122 55.888C152.951 56.1653 152.663 56.496 152.258 56.88C151.852 57.2427 151.319 57.5733 150.658 57.872C149.996 58.1493 149.196 58.288 148.258 58.288C147.255 58.288 146.306 58.0853 145.41 57.68C144.535 57.2533 143.756 56.6773 143.074 55.952C142.412 55.2053 141.879 54.3627 141.474 53.424C141.09 52.464 140.898 51.44 140.898 50.352C140.898 49.3067 141.09 48.3253 141.474 47.408C141.879 46.4693 142.423 45.6373 143.106 44.912C143.788 44.1867 144.567 43.6213 145.442 43.216C146.338 42.7893 147.276 42.576 148.258 42.576C149.132 42.576 149.868 42.6933 150.466 42.928C151.084 43.1627 151.607 43.4613 152.034 43.824C152.46 44.1653 152.812 44.528 153.09 44.912L152.898 43.984C152.898 43.5147 153.047 43.1627 153.346 42.928C153.644 42.672 154.114 42.544 154.754 42.544C155.351 42.544 155.778 42.64 156.034 42.832C156.29 43.0027 156.45 43.248 156.514 43.568C156.578 43.8667 156.61 44.208 156.61 44.592V56.304C156.61 56.6667 156.578 56.9973 156.514 57.296C156.45 57.5947 156.279 57.8293 156.002 58C155.746 58.1707 155.319 58.256 154.722 58.256ZM148.834 54.544C149.559 54.544 150.21 54.3627 150.786 54C151.362 53.6373 151.82 53.1467 152.162 52.528C152.524 51.888 152.706 51.184 152.706 50.416C152.706 49.584 152.524 48.8587 152.162 48.24C151.799 47.6213 151.319 47.1413 150.722 46.8C150.146 46.4373 149.495 46.256 148.77 46.256C147.98 46.256 147.276 46.448 146.658 46.832C146.039 47.1947 145.548 47.696 145.186 48.336C144.844 48.9547 144.674 49.6587 144.674 50.448C144.674 51.216 144.855 51.9093 145.218 52.528C145.58 53.1467 146.071 53.6373 146.69 54C147.33 54.3627 148.044 54.544 148.834 54.544ZM165.324 58.32C164.535 58.32 163.831 58.2667 163.212 58.16C162.615 58.0533 162.092 57.872 161.644 57.616C161.218 57.36 160.866 57.0187 160.588 56.592C160.311 56.144 160.098 55.6 159.948 54.96C159.82 54.32 159.756 53.552 159.756 52.656V37.232C159.756 36.8693 159.788 36.5493 159.852 36.272C159.938 35.9733 160.108 35.7387 160.364 35.568C160.642 35.376 161.079 35.28 161.676 35.28C162.274 35.28 162.7 35.3653 162.956 35.536C163.234 35.7067 163.404 35.9413 163.468 36.24C163.554 36.5173 163.596 36.8373 163.596 37.2V52.496C163.596 52.9013 163.618 53.2427 163.66 53.52C163.724 53.776 163.82 53.9893 163.948 54.16C164.098 54.3093 164.279 54.416 164.492 54.48C164.727 54.544 165.004 54.576 165.324 54.576C165.602 54.576 165.847 54.608 166.06 54.672C166.295 54.736 166.476 54.896 166.604 55.152C166.754 55.408 166.828 55.824 166.828 56.4C166.828 56.9973 166.754 57.4347 166.604 57.712C166.476 57.9893 166.295 58.16 166.06 58.224C165.826 58.288 165.58 58.32 165.324 58.32ZM176.749 58.512C175.362 58.512 174.146 58.288 173.101 57.84C172.077 57.392 171.213 56.784 170.509 56.016C169.826 55.2267 169.303 54.352 168.941 53.392C168.599 52.4107 168.429 51.3973 168.429 50.352C168.429 48.816 168.781 47.4507 169.485 46.256C170.189 45.0613 171.159 44.1227 172.397 43.44C173.655 42.7573 175.095 42.416 176.717 42.416C177.869 42.416 178.882 42.5973 179.757 42.96C180.631 43.3227 181.357 43.8027 181.933 44.4C182.53 44.976 182.978 45.616 183.277 46.32C183.597 47.024 183.757 47.7067 183.757 48.368C183.757 49.4987 183.479 50.32 182.925 50.832C182.391 51.344 181.719 51.6 180.909 51.6H172.461C172.482 52.3253 172.706 52.9547 173.133 53.488C173.581 54.0213 174.135 54.4373 174.797 54.736C175.479 55.0133 176.173 55.152 176.877 55.152C177.41 55.152 177.879 55.12 178.285 55.056C178.711 54.992 179.074 54.9173 179.373 54.832C179.671 54.7253 179.927 54.6187 180.141 54.512C180.375 54.4053 180.589 54.3093 180.781 54.224C180.973 54.1387 181.154 54.0853 181.325 54.064C181.559 54.0427 181.794 54.096 182.029 54.224C182.263 54.352 182.455 54.576 182.605 54.896C182.733 55.1093 182.818 55.312 182.861 55.504C182.925 55.6747 182.957 55.8453 182.957 56.016C182.957 56.4427 182.701 56.848 182.189 57.232C181.677 57.5947 180.951 57.8933 180.013 58.128C179.095 58.384 178.007 58.512 176.749 58.512ZM172.461 49.328H179.021C179.383 49.328 179.661 49.2747 179.853 49.168C180.045 49.04 180.141 48.784 180.141 48.4C180.141 47.9093 179.991 47.472 179.693 47.088C179.394 46.6827 178.989 46.3733 178.477 46.16C177.965 45.9253 177.367 45.808 176.685 45.808C175.895 45.808 175.181 45.968 174.541 46.288C173.901 46.5867 173.389 47.0027 173.005 47.536C172.642 48.0693 172.461 48.6667 172.461 49.328ZM188.271 58.288C187.695 58.288 187.268 58.192 186.991 58C186.735 57.8293 186.575 57.6053 186.511 57.328C186.447 57.0293 186.415 56.6987 186.415 56.336V44.368C186.415 44.0267 186.447 43.7173 186.511 43.44C186.575 43.1627 186.745 42.9493 187.023 42.8C187.3 42.6293 187.727 42.544 188.303 42.544C188.815 42.544 189.199 42.608 189.455 42.736C189.711 42.864 189.881 43.024 189.967 43.216C190.052 43.408 190.095 43.6 190.095 43.792C190.116 43.984 190.137 44.1333 190.159 44.24L190.031 45.264C190.159 44.9227 190.372 44.592 190.671 44.272C190.969 43.952 191.332 43.664 191.759 43.408C192.185 43.1307 192.644 42.9173 193.135 42.768C193.647 42.5973 194.169 42.512 194.703 42.512C195.705 42.512 196.601 42.6933 197.391 43.056C198.18 43.4187 198.852 43.9307 199.407 44.592C199.983 45.2533 200.42 46.0427 200.719 46.96C201.017 47.856 201.167 48.8693 201.167 50V56.368C201.167 56.7307 201.124 57.0613 201.039 57.36C200.975 57.6373 200.815 57.8613 200.559 58.032C200.303 58.2027 199.865 58.288 199.247 58.288C198.649 58.288 198.212 58.192 197.935 58C197.657 57.8293 197.487 57.6053 197.423 57.328C197.359 57.0293 197.327 56.6987 197.327 56.336V49.968C197.327 49.2 197.188 48.5387 196.911 47.984C196.655 47.4293 196.271 47.0027 195.759 46.704C195.268 46.4053 194.639 46.256 193.871 46.256C193.124 46.256 192.473 46.416 191.919 46.736C191.364 47.0347 190.937 47.4613 190.639 48.016C190.34 48.5707 190.191 49.2213 190.191 49.968V56.368C190.191 56.7307 190.159 57.0613 190.095 57.36C190.031 57.6373 189.86 57.8613 189.583 58.032C189.327 58.2027 188.889 58.288 188.271 58.288ZM217.409 58.256C216.79 58.256 216.332 58.1387 216.033 57.904C215.734 57.6693 215.585 57.3493 215.585 56.944L215.809 55.888C215.638 56.1653 215.35 56.496 214.945 56.88C214.54 57.2427 214.006 57.5733 213.345 57.872C212.684 58.1493 211.884 58.288 210.945 58.288C209.942 58.288 208.993 58.0853 208.097 57.68C207.222 57.2533 206.444 56.6773 205.761 55.952C205.1 55.2053 204.566 54.3627 204.161 53.424C203.777 52.464 203.585 51.44 203.585 50.352C203.585 49.3067 203.777 48.3253 204.161 47.408C204.566 46.4693 205.11 45.6373 205.793 44.912C206.476 44.1867 207.254 43.6213 208.129 43.216C209.025 42.7893 209.964 42.576 210.945 42.576C211.82 42.576 212.556 42.6933 213.153 42.928C213.772 43.1627 214.294 43.4613 214.721 43.824C215.148 44.1653 215.5 44.528 215.777 44.912L215.585 43.984C215.585 43.5147 215.734 43.1627 216.033 42.928C216.332 42.672 216.801 42.544 217.441 42.544C218.038 42.544 218.465 42.64 218.721 42.832C218.977 43.0027 219.137 43.248 219.201 43.568C219.265 43.8667 219.297 44.208 219.297 44.592V56.304C219.297 56.6667 219.265 56.9973 219.201 57.296C219.137 57.5947 218.966 57.8293 218.689 58C218.433 58.1707 218.006 58.256 217.409 58.256ZM211.521 54.544C212.246 54.544 212.897 54.3627 213.473 54C214.049 53.6373 214.508 53.1467 214.849 52.528C215.212 51.888 215.393 51.184 215.393 50.416C215.393 49.584 215.212 48.8587 214.849 48.24C214.486 47.6213 214.006 47.1413 213.409 46.8C212.833 46.4373 212.182 46.256 211.457 46.256C210.668 46.256 209.964 46.448 209.345 46.832C208.726 47.1947 208.236 47.696 207.873 48.336C207.532 48.9547 207.361 49.6587 207.361 50.448C207.361 51.216 207.542 51.9093 207.905 52.528C208.268 53.1467 208.758 53.6373 209.377 54C210.017 54.3627 210.732 54.544 211.521 54.544ZM241.325 58.448C240.28 58.448 239.224 58.2987 238.157 58C237.091 57.68 236.067 57.2107 235.085 56.592C234.104 55.952 233.229 55.1733 232.461 54.256C231.715 53.3173 231.117 52.24 230.669 51.024C230.221 49.7867 229.997 48.4213 229.997 46.928C229.997 45.456 230.221 44.1333 230.669 42.96C231.117 41.7653 231.715 40.72 232.461 39.824C233.229 38.928 234.093 38.1813 235.053 37.584C236.035 36.9867 237.059 36.5387 238.125 36.24C239.213 35.92 240.291 35.7493 241.357 35.728C242.445 35.728 243.384 35.8453 244.173 36.08C244.963 36.3147 245.603 36.5707 246.093 36.848C246.584 37.104 246.915 37.2853 247.085 37.392C247.427 37.6053 247.747 37.8507 248.045 38.128C248.365 38.384 248.536 38.704 248.557 39.088C248.579 39.344 248.547 39.5787 248.461 39.792C248.376 39.984 248.259 40.1867 248.109 40.4C247.853 40.7627 247.597 41.0293 247.341 41.2C247.085 41.3707 246.829 41.456 246.573 41.456C246.339 41.456 246.115 41.392 245.901 41.264C245.709 41.136 245.464 40.976 245.165 40.784C245.037 40.6987 244.803 40.5707 244.461 40.4C244.141 40.208 243.704 40.0373 243.149 39.888C242.616 39.7387 241.965 39.664 241.197 39.664C240.28 39.664 239.384 39.824 238.509 40.144C237.635 40.464 236.845 40.944 236.141 41.584C235.459 42.2027 234.915 42.9813 234.509 43.92C234.104 44.8373 233.901 45.8933 233.901 47.088C233.901 48.2827 234.104 49.3493 234.509 50.288C234.915 51.2053 235.459 51.984 236.141 52.624C236.845 53.2427 237.635 53.712 238.509 54.032C239.384 54.352 240.28 54.512 241.197 54.512C241.923 54.512 242.541 54.448 243.053 54.32C243.587 54.1707 244.035 54 244.397 53.808C244.781 53.5947 245.069 53.4347 245.261 53.328C245.496 53.1787 245.72 53.04 245.933 52.912C246.147 52.784 246.371 52.72 246.605 52.72C246.861 52.72 247.107 52.8053 247.341 52.976C247.597 53.1467 247.843 53.424 248.077 53.808C248.227 54.0427 248.344 54.2667 248.429 54.48C248.515 54.6933 248.547 54.9173 248.525 55.152C248.504 55.536 248.333 55.8667 248.013 56.144C247.715 56.4 247.395 56.624 247.053 56.816C246.883 56.9227 246.552 57.1147 246.061 57.392C245.592 57.648 244.963 57.8827 244.173 58.096C243.384 58.3307 242.435 58.448 241.325 58.448ZM263.909 58.256C263.29 58.256 262.832 58.1387 262.533 57.904C262.234 57.6693 262.085 57.3493 262.085 56.944L262.309 55.888C262.138 56.1653 261.85 56.496 261.445 56.88C261.04 57.2427 260.506 57.5733 259.845 57.872C259.184 58.1493 258.384 58.288 257.445 58.288C256.442 58.288 255.493 58.0853 254.597 57.68C253.722 57.2533 252.944 56.6773 252.261 55.952C251.6 55.2053 251.066 54.3627 250.661 53.424C250.277 52.464 250.085 51.44 250.085 50.352C250.085 49.3067 250.277 48.3253 250.661 47.408C251.066 46.4693 251.61 45.6373 252.293 44.912C252.976 44.1867 253.754 43.6213 254.629 43.216C255.525 42.7893 256.464 42.576 257.445 42.576C258.32 42.576 259.056 42.6933 259.653 42.928C260.272 43.1627 260.794 43.4613 261.221 43.824C261.648 44.1653 262 44.528 262.277 44.912L262.085 43.984C262.085 43.5147 262.234 43.1627 262.533 42.928C262.832 42.672 263.301 42.544 263.941 42.544C264.538 42.544 264.965 42.64 265.221 42.832C265.477 43.0027 265.637 43.248 265.701 43.568C265.765 43.8667 265.797 44.208 265.797 44.592V56.304C265.797 56.6667 265.765 56.9973 265.701 57.296C265.637 57.5947 265.466 57.8293 265.189 58C264.933 58.1707 264.506 58.256 263.909 58.256ZM258.021 54.544C258.746 54.544 259.397 54.3627 259.973 54C260.549 53.6373 261.008 53.1467 261.349 52.528C261.712 51.888 261.893 51.184 261.893 50.416C261.893 49.584 261.712 48.8587 261.349 48.24C260.986 47.6213 260.506 47.1413 259.909 46.8C259.333 46.4373 258.682 46.256 257.957 46.256C257.168 46.256 256.464 46.448 255.845 46.832C255.226 47.1947 254.736 47.696 254.373 48.336C254.032 48.9547 253.861 49.6587 253.861 50.448C253.861 51.216 254.042 51.9093 254.405 52.528C254.768 53.1467 255.258 53.6373 255.877 54C256.517 54.3627 257.232 54.544 258.021 54.544ZM277.104 58.096C276.058 58.096 275.12 57.904 274.288 57.52C273.477 57.1147 272.784 56.56 272.208 55.856C271.653 55.1307 271.226 54.2987 270.928 53.36C270.65 52.4213 270.512 51.408 270.512 50.32C270.533 49.232 270.693 48.2187 270.992 47.28C271.29 46.32 271.717 45.488 272.272 44.784C272.848 44.08 273.541 43.5253 274.352 43.12C275.162 42.7147 276.08 42.512 277.104 42.512C278.085 42.512 279.002 42.7147 279.856 43.12C280.73 43.5253 281.498 44.0907 282.16 44.816C282.842 45.5413 283.376 46.384 283.76 47.344C284.144 48.2827 284.336 49.296 284.336 50.384C284.336 51.4933 284.144 52.5173 283.76 53.456C283.376 54.3947 282.853 55.216 282.192 55.92C281.53 56.6027 280.762 57.136 279.888 57.52C279.013 57.904 278.085 58.096 277.104 58.096ZM270.704 64.752C270.128 64.752 269.701 64.6667 269.424 64.496C269.146 64.3253 268.976 64.1013 268.912 63.824C268.848 63.5467 268.816 63.2267 268.816 62.864V44.464C268.816 44.1013 268.848 43.7813 268.912 43.504C268.976 43.2267 269.136 43.0027 269.392 42.832C269.669 42.64 270.096 42.544 270.672 42.544C271.226 42.544 271.664 42.6293 271.984 42.8C272.304 42.9707 272.517 43.2587 272.624 43.664V62.832C272.645 63.1947 272.613 63.5147 272.528 63.792C272.464 64.0907 272.293 64.3253 272.016 64.496C271.738 64.6667 271.301 64.752 270.704 64.752ZM276.592 54.512C277.338 54.512 278.01 54.3413 278.608 54C279.205 53.6373 279.674 53.1467 280.016 52.528C280.378 51.888 280.56 51.1733 280.56 50.384C280.56 49.5733 280.378 48.8587 280.016 48.24C279.674 47.6213 279.205 47.1413 278.608 46.8C278.01 46.4373 277.338 46.256 276.592 46.256C275.866 46.256 275.205 46.4373 274.608 46.8C274.01 47.1627 273.53 47.6533 273.168 48.272C272.826 48.8693 272.656 49.5733 272.656 50.384C272.656 51.1733 272.826 51.888 273.168 52.528C273.53 53.1467 274.01 53.6373 274.608 54C275.205 54.3413 275.866 54.512 276.592 54.512ZM294.655 58.512C293.268 58.512 292.052 58.288 291.007 57.84C289.983 57.392 289.119 56.784 288.415 56.016C287.732 55.2267 287.21 54.352 286.847 53.392C286.506 52.4107 286.335 51.3973 286.335 50.352C286.335 48.816 286.687 47.4507 287.391 46.256C288.095 45.0613 289.066 44.1227 290.303 43.44C291.562 42.7573 293.002 42.416 294.623 42.416C295.775 42.416 296.788 42.5973 297.663 42.96C298.538 43.3227 299.263 43.8027 299.839 44.4C300.436 44.976 300.884 45.616 301.183 46.32C301.503 47.024 301.663 47.7067 301.663 48.368C301.663 49.4987 301.386 50.32 300.831 50.832C300.298 51.344 299.626 51.6 298.815 51.6H290.367C290.388 52.3253 290.612 52.9547 291.039 53.488C291.487 54.0213 292.042 54.4373 292.703 54.736C293.386 55.0133 294.079 55.152 294.783 55.152C295.316 55.152 295.786 55.12 296.191 55.056C296.618 54.992 296.98 54.9173 297.279 54.832C297.578 54.7253 297.834 54.6187 298.047 54.512C298.282 54.4053 298.495 54.3093 298.687 54.224C298.879 54.1387 299.06 54.0853 299.231 54.064C299.466 54.0427 299.7 54.096 299.935 54.224C300.17 54.352 300.362 54.576 300.511 54.896C300.639 55.1093 300.724 55.312 300.767 55.504C300.831 55.6747 300.863 55.8453 300.863 56.016C300.863 56.4427 300.607 56.848 300.095 57.232C299.583 57.5947 298.858 57.8933 297.919 58.128C297.002 58.384 295.914 58.512 294.655 58.512ZM290.367 49.328H296.927C297.29 49.328 297.567 49.2747 297.759 49.168C297.951 49.04 298.047 48.784 298.047 48.4C298.047 47.9093 297.898 47.472 297.599 47.088C297.3 46.6827 296.895 46.3733 296.383 46.16C295.871 45.9253 295.274 45.808 294.591 45.808C293.802 45.808 293.087 45.968 292.447 46.288C291.807 46.5867 291.295 47.0027 290.911 47.536C290.548 48.0693 290.367 48.6667 290.367 49.328ZM317.345 58.288C316.598 58.288 315.926 58.2133 315.329 58.064C314.753 57.9147 314.241 57.6907 313.793 57.392C313.345 57.072 312.972 56.688 312.673 56.24C312.374 55.792 312.15 55.2693 312.001 54.672C311.852 54.0533 311.777 53.3707 311.777 52.624V37.2C311.777 36.8373 311.809 36.5173 311.873 36.24C311.937 35.9413 312.108 35.7067 312.385 35.536C312.662 35.3653 313.1 35.28 313.697 35.28C314.273 35.28 314.7 35.3653 314.977 35.536C315.254 35.7067 315.425 35.9413 315.489 36.24C315.574 36.5173 315.617 36.8267 315.617 37.168V52.72C315.617 53.0187 315.649 53.2747 315.713 53.488C315.777 53.7013 315.873 53.8827 316.001 54.032C316.15 54.1813 316.332 54.288 316.545 54.352C316.78 54.416 317.046 54.448 317.345 54.448C317.836 54.448 318.22 54.512 318.497 54.64C318.774 54.768 318.977 54.9707 319.105 55.248C319.233 55.5253 319.297 55.8987 319.297 56.368C319.297 56.816 319.222 57.1893 319.073 57.488C318.945 57.7653 318.732 57.968 318.433 58.096C318.156 58.224 317.793 58.288 317.345 58.288ZM309.249 58.288C308.545 58.288 307.916 58.2133 307.361 58.064C306.806 57.936 306.326 57.7227 305.921 57.424C305.516 57.1253 305.174 56.752 304.897 56.304C304.641 55.856 304.449 55.3333 304.321 54.736C304.193 54.1173 304.129 53.4133 304.129 52.624V37.2C304.129 36.8373 304.161 36.5173 304.225 36.24C304.289 35.9413 304.46 35.7067 304.737 35.536C305.014 35.3653 305.441 35.28 306.017 35.28C306.614 35.28 307.041 35.3653 307.297 35.536C307.574 35.7067 307.745 35.9413 307.809 36.24C307.894 36.5173 307.937 36.8267 307.937 37.168V52.72C307.937 53.1253 307.99 53.456 308.097 53.712C308.225 53.968 308.385 54.16 308.577 54.288C308.769 54.3947 308.993 54.448 309.249 54.448C309.654 54.448 309.974 54.512 310.209 54.64C310.444 54.768 310.604 54.9707 310.689 55.248C310.796 55.5253 310.849 55.8987 310.849 56.368C310.849 56.816 310.796 57.1893 310.689 57.488C310.582 57.7653 310.412 57.968 310.177 58.096C309.942 58.224 309.633 58.288 309.249 58.288ZM329.118 58.512C328.094 58.512 327.091 58.32 326.11 57.936C325.15 57.5307 324.275 56.9653 323.486 56.24C322.718 55.5147 322.099 54.6613 321.63 53.68C321.182 52.6987 320.958 51.6213 320.958 50.448C320.958 49.3173 321.171 48.2613 321.598 47.28C322.024 46.2987 322.611 45.4347 323.358 44.688C324.104 43.9413 324.958 43.3653 325.918 42.96C326.899 42.5333 327.944 42.32 329.054 42.32C330.547 42.32 331.902 42.6827 333.118 43.408C334.334 44.112 335.304 45.072 336.03 46.288C336.755 47.504 337.118 48.88 337.118 50.416C337.118 51.632 336.894 52.7413 336.446 53.744C335.998 54.7253 335.39 55.5787 334.622 56.304C333.854 57.008 332.99 57.552 332.03 57.936C331.091 58.32 330.12 58.512 329.118 58.512ZM329.054 54.736C329.758 54.736 330.43 54.5653 331.07 54.224C331.731 53.8613 332.264 53.3493 332.67 52.688C333.096 52.0267 333.31 51.248 333.31 50.352C333.31 49.52 333.118 48.784 332.734 48.144C332.371 47.504 331.87 47.0027 331.23 46.64C330.59 46.2773 329.854 46.096 329.022 46.096C328.232 46.096 327.518 46.288 326.878 46.672C326.238 47.0347 325.726 47.5467 325.342 48.208C324.979 48.848 324.798 49.5733 324.798 50.384C324.798 51.28 325 52.0587 325.406 52.72C325.811 53.36 326.334 53.8613 326.974 54.224C327.635 54.5653 328.328 54.736 329.054 54.736ZM116.26 82.18C115.913 82.18 115.653 82.12 115.48 82C115.307 81.8933 115.193 81.7467 115.14 81.56C115.087 81.3733 115.06 81.1733 115.06 80.96V69.4C115.06 69.1867 115.08 68.9933 115.12 68.82C115.173 68.6333 115.287 68.4867 115.46 68.38C115.633 68.26 115.907 68.2 116.28 68.2L120.04 68.22C121.013 68.22 121.907 68.3867 122.72 68.72C123.547 69.0533 124.26 69.5267 124.86 70.14C125.46 70.7533 125.92 71.4867 126.24 72.34C126.573 73.18 126.74 74.1067 126.74 75.12C126.74 76.16 126.573 77.1133 126.24 77.98C125.907 78.8467 125.44 79.5933 124.84 80.22C124.24 80.8467 123.527 81.3333 122.7 81.68C121.887 82.0133 120.98 82.18 119.98 82.18H116.26ZM117.48 79.76H120.04C120.893 79.76 121.64 79.5733 122.28 79.2C122.92 78.8133 123.413 78.28 123.76 77.6C124.12 76.92 124.3 76.1267 124.3 75.22C124.3 74.3 124.12 73.5 123.76 72.82C123.413 72.1267 122.913 71.5933 122.26 71.22C121.62 70.8333 120.873 70.64 120.02 70.64H117.48V79.76ZM130.074 82.2C129.7 82.2 129.427 82.14 129.254 82.02C129.08 81.9133 128.974 81.7667 128.934 81.58C128.894 81.3933 128.874 81.1867 128.874 80.96V69.42C128.874 68.9667 128.96 68.6533 129.134 68.48C129.32 68.3067 129.654 68.22 130.134 68.22H137.934C138.16 68.22 138.36 68.2467 138.534 68.3C138.72 68.34 138.867 68.4467 138.974 68.62C139.08 68.78 139.134 69.0533 139.134 69.44C139.134 69.8133 139.074 70.0867 138.954 70.26C138.847 70.4333 138.7 70.54 138.514 70.58C138.34 70.62 138.14 70.64 137.914 70.64H131.294V74H135.854C136.08 74 136.274 74.0267 136.434 74.08C136.594 74.12 136.72 74.2133 136.814 74.36C136.907 74.5067 136.954 74.7533 136.954 75.1C136.954 75.4333 136.907 75.68 136.814 75.84C136.72 75.9867 136.587 76.08 136.414 76.12C136.24 76.1467 136.04 76.16 135.814 76.16H131.294V79.76H137.934C138.16 79.76 138.36 79.7867 138.534 79.84C138.72 79.88 138.867 79.9867 138.974 80.16C139.08 80.3333 139.134 80.6067 139.134 80.98C139.134 81.3533 139.074 81.6267 138.954 81.8C138.847 81.9733 138.7 82.08 138.514 82.12C138.34 82.1733 138.14 82.2 137.914 82.2H130.074ZM145.358 82.38C144.758 82.38 144.211 82.3067 143.718 82.16C143.238 82.0133 142.811 81.8267 142.438 81.6C142.078 81.3733 141.771 81.14 141.518 80.9C141.264 80.66 141.078 80.44 140.958 80.24C140.784 80 140.671 79.7867 140.618 79.6C140.564 79.4133 140.578 79.2333 140.658 79.06C140.751 78.8733 140.918 78.68 141.158 78.48C141.398 78.2667 141.618 78.16 141.818 78.16C142.031 78.1467 142.231 78.2067 142.418 78.34C142.618 78.4733 142.811 78.66 142.998 78.9C143.318 79.3267 143.678 79.6333 144.078 79.82C144.478 79.9933 144.878 80.08 145.278 80.08C145.798 80.08 146.251 80.0133 146.638 79.88C147.024 79.7333 147.324 79.52 147.538 79.24C147.764 78.96 147.878 78.6 147.878 78.16C147.878 77.8 147.764 77.5067 147.538 77.28C147.324 77.04 147.038 76.84 146.678 76.68C146.318 76.5067 145.911 76.3533 145.458 76.22C145.018 76.0733 144.571 75.9133 144.118 75.74C143.798 75.6333 143.478 75.5067 143.158 75.36C142.838 75.2 142.538 75.02 142.258 74.82C141.991 74.62 141.751 74.3867 141.538 74.12C141.338 73.84 141.178 73.52 141.058 73.16C140.938 72.8 140.878 72.38 140.878 71.9C140.878 71.14 141.064 70.4733 141.438 69.9C141.811 69.3133 142.331 68.8533 142.998 68.52C143.664 68.1733 144.424 68 145.278 68C145.824 68 146.311 68.0533 146.738 68.16C147.178 68.2533 147.551 68.38 147.858 68.54C148.178 68.6867 148.438 68.84 148.638 69C148.851 69.1467 149.004 69.2733 149.098 69.38C149.404 69.6867 149.571 69.9467 149.598 70.16C149.638 70.36 149.518 70.6333 149.238 70.98C148.958 71.34 148.684 71.54 148.418 71.58C148.164 71.6067 147.878 71.5 147.558 71.26C147.344 71.0333 147.131 70.8533 146.918 70.72C146.704 70.5733 146.464 70.4667 146.198 70.4C145.944 70.3333 145.631 70.3 145.258 70.3C144.991 70.3 144.731 70.34 144.478 70.42C144.238 70.4867 144.031 70.5933 143.858 70.74C143.684 70.8733 143.544 71.04 143.438 71.24C143.344 71.44 143.298 71.6667 143.298 71.92C143.298 72.2667 143.391 72.5533 143.578 72.78C143.778 72.9933 144.044 73.1733 144.378 73.32C144.711 73.4533 145.084 73.58 145.498 73.7C145.911 73.82 146.331 73.9467 146.758 74.08C147.198 74.2267 147.631 74.4 148.058 74.6C148.484 74.8 148.864 75.0533 149.198 75.36C149.531 75.6533 149.798 76.0267 149.998 76.48C150.198 76.92 150.298 77.46 150.298 78.1C150.298 78.8333 150.158 79.4733 149.878 80.02C149.598 80.5667 149.218 81.0133 148.738 81.36C148.258 81.7067 147.724 81.96 147.138 82.12C146.551 82.2933 145.958 82.38 145.358 82.38ZM163.853 80.5C163.986 80.7533 164.053 80.98 164.053 81.18C164.066 81.3667 164.013 81.5333 163.893 81.68C163.773 81.8133 163.573 81.9533 163.293 82.1C162.866 82.3 162.533 82.3533 162.293 82.26C162.066 82.1667 161.853 81.9067 161.653 81.48L157.193 72.06L152.753 81.48C152.553 81.8933 152.333 82.14 152.093 82.22C151.853 82.3133 151.519 82.2667 151.093 82.08C150.826 81.9467 150.626 81.8067 150.493 81.66C150.373 81.5133 150.319 81.34 150.333 81.14C150.359 80.9267 150.446 80.6733 150.593 80.38L156.093 68.92C156.199 68.7067 156.353 68.54 156.553 68.42C156.766 68.2867 156.986 68.22 157.213 68.22C157.373 68.22 157.519 68.2467 157.653 68.3C157.786 68.3533 157.906 68.4333 158.013 68.54C158.133 68.6467 158.233 68.78 158.313 68.94L163.853 80.5ZM153.633 78.56L154.593 76.5H159.813L160.773 78.56H153.633ZM166.694 82.18C166.321 82.18 166.047 82.1267 165.874 82.02C165.714 81.9133 165.607 81.7667 165.554 81.58C165.514 81.38 165.494 81.1733 165.494 80.96V69.42C165.494 69.2067 165.521 69.0133 165.574 68.84C165.627 68.6533 165.734 68.5067 165.894 68.4C166.067 68.28 166.341 68.22 166.714 68.22H170.994C171.607 68.22 172.187 68.32 172.734 68.52C173.294 68.7067 173.794 69 174.234 69.4C174.674 69.7867 175.021 70.28 175.274 70.88C175.541 71.4667 175.674 72.1533 175.674 72.94C175.674 73.46 175.594 73.98 175.434 74.5C175.274 75.0067 175.034 75.48 174.714 75.92C174.407 76.3467 174.014 76.7133 173.534 77.02C173.054 77.3267 172.487 77.5267 171.834 77.62H167.914V80.98C167.914 81.1933 167.887 81.3933 167.834 81.58C167.794 81.7667 167.687 81.9133 167.514 82.02C167.354 82.1267 167.081 82.18 166.694 82.18ZM175.214 81.88C174.827 82.1467 174.507 82.2467 174.254 82.18C174.014 82.1133 173.774 81.9 173.534 81.54L170.174 76.46L172.874 76.1L175.534 80.14C175.721 80.4067 175.834 80.6333 175.874 80.82C175.914 81.0067 175.881 81.18 175.774 81.34C175.667 81.5 175.481 81.68 175.214 81.88ZM167.914 75.22H171.294C171.534 75.22 171.767 75.18 171.994 75.1C172.234 75.0067 172.447 74.8667 172.634 74.68C172.821 74.48 172.967 74.24 173.074 73.96C173.194 73.6667 173.254 73.32 173.254 72.92C173.254 72.44 173.161 72.0333 172.974 71.7C172.787 71.3533 172.521 71.0933 172.174 70.92C171.841 70.7333 171.434 70.64 170.954 70.64H167.914V75.22ZM179.057 82.18C178.684 82.18 178.411 82.1267 178.237 82.02C178.077 81.9133 177.971 81.7667 177.917 81.58C177.877 81.38 177.857 81.1733 177.857 80.96V69.42C177.857 69.2067 177.884 69.0133 177.937 68.84C177.991 68.6533 178.097 68.5067 178.257 68.4C178.431 68.28 178.704 68.22 179.077 68.22H183.357C183.971 68.22 184.551 68.32 185.097 68.52C185.657 68.7067 186.157 69 186.597 69.4C187.037 69.7867 187.384 70.28 187.637 70.88C187.904 71.4667 188.037 72.1533 188.037 72.94C188.037 73.46 187.957 73.98 187.797 74.5C187.637 75.0067 187.397 75.48 187.077 75.92C186.771 76.3467 186.377 76.7133 185.897 77.02C185.417 77.3267 184.851 77.5267 184.197 77.62H180.277V80.98C180.277 81.1933 180.251 81.3933 180.197 81.58C180.157 81.7667 180.051 81.9133 179.877 82.02C179.717 82.1267 179.444 82.18 179.057 82.18ZM187.577 81.88C187.191 82.1467 186.871 82.2467 186.617 82.18C186.377 82.1133 186.137 81.9 185.897 81.54L182.537 76.46L185.237 76.1L187.897 80.14C188.084 80.4067 188.197 80.6333 188.237 80.82C188.277 81.0067 188.244 81.18 188.137 81.34C188.031 81.5 187.844 81.68 187.577 81.88ZM180.277 75.22H183.657C183.897 75.22 184.131 75.18 184.357 75.1C184.597 75.0067 184.811 74.8667 184.997 74.68C185.184 74.48 185.331 74.24 185.437 73.96C185.557 73.6667 185.617 73.32 185.617 72.92C185.617 72.44 185.524 72.0333 185.337 71.7C185.151 71.3533 184.884 71.0933 184.537 70.92C184.204 70.7333 183.797 70.64 183.317 70.64H180.277V75.22ZM196.165 82.36C195.205 82.36 194.305 82.18 193.465 81.82C192.638 81.4467 191.905 80.94 191.265 80.3C190.625 79.6467 190.125 78.9 189.765 78.06C189.405 77.2067 189.225 76.2933 189.225 75.32C189.225 74.32 189.398 73.3867 189.745 72.52C190.105 71.64 190.592 70.8733 191.205 70.22C191.832 69.5533 192.552 69.0333 193.365 68.66C194.178 68.2867 195.052 68.1 195.985 68.1C196.958 68.1 197.858 68.2867 198.685 68.66C199.525 69.02 200.258 69.5267 200.885 70.18C201.512 70.8333 202.005 71.5933 202.365 72.46C202.725 73.3133 202.905 74.24 202.905 75.24C202.905 76.2133 202.732 77.1333 202.385 78C202.038 78.8533 201.552 79.6133 200.925 80.28C200.298 80.9333 199.578 81.4467 198.765 81.82C197.965 82.18 197.098 82.36 196.165 82.36ZM196.065 79.92C196.678 79.92 197.252 79.8 197.785 79.56C198.318 79.32 198.785 78.9867 199.185 78.56C199.598 78.1333 199.918 77.64 200.145 77.08C200.372 76.5067 200.485 75.8933 200.485 75.24C200.485 74.5867 200.365 73.98 200.125 73.42C199.898 72.8467 199.578 72.3467 199.165 71.92C198.765 71.48 198.298 71.14 197.765 70.9C197.245 70.66 196.678 70.54 196.065 70.54C195.465 70.54 194.898 70.66 194.365 70.9C193.832 71.14 193.358 71.48 192.945 71.92C192.545 72.3467 192.232 72.8467 192.005 73.42C191.778 73.9933 191.665 74.6 191.665 75.24C191.665 75.88 191.778 76.4867 192.005 77.06C192.245 77.6333 192.565 78.1333 192.965 78.56C193.365 78.9867 193.825 79.32 194.345 79.56C194.878 79.8 195.452 79.92 196.065 79.92ZM205.776 82.2C205.389 82.2 205.109 82.14 204.936 82.02C204.763 81.9133 204.649 81.7667 204.596 81.58C204.556 81.3933 204.536 81.1933 204.536 80.98V69.44C204.536 69.2133 204.556 69.0067 204.596 68.82C204.649 68.6333 204.756 68.4867 204.916 68.38C205.089 68.2733 205.369 68.22 205.756 68.22C206.129 68.22 206.396 68.2733 206.556 68.38C206.729 68.4867 206.836 68.6333 206.876 68.82C206.929 69.0067 206.956 69.2133 206.956 69.44V80.04H213.056C213.256 80.04 213.436 80.06 213.596 80.1C213.756 80.1267 213.883 80.22 213.976 80.38C214.069 80.5267 214.116 80.7667 214.116 81.1C214.116 81.4333 214.069 81.68 213.976 81.84C213.883 81.9867 213.756 82.08 213.596 82.12C213.436 82.1733 213.256 82.2 213.056 82.2H205.776ZM217.006 82.2C216.62 82.2 216.34 82.14 216.166 82.02C215.993 81.9133 215.88 81.7667 215.826 81.58C215.786 81.3933 215.766 81.1933 215.766 80.98V69.44C215.766 69.2133 215.786 69.0067 215.826 68.82C215.88 68.6333 215.986 68.4867 216.146 68.38C216.32 68.2733 216.6 68.22 216.986 68.22C217.36 68.22 217.626 68.2733 217.786 68.38C217.96 68.4867 218.066 68.6333 218.106 68.82C218.16 69.0067 218.186 69.2133 218.186 69.44V80.04H224.286C224.486 80.04 224.666 80.06 224.826 80.1C224.986 80.1267 225.113 80.22 225.206 80.38C225.3 80.5267 225.346 80.7667 225.346 81.1C225.346 81.4333 225.3 81.68 225.206 81.84C225.113 81.9867 224.986 82.08 224.826 82.12C224.666 82.1733 224.486 82.2 224.286 82.2H217.006ZM233.177 82.36C232.217 82.36 231.317 82.18 230.477 81.82C229.65 81.4467 228.917 80.94 228.277 80.3C227.637 79.6467 227.137 78.9 226.777 78.06C226.417 77.2067 226.237 76.2933 226.237 75.32C226.237 74.32 226.41 73.3867 226.757 72.52C227.117 71.64 227.604 70.8733 228.217 70.22C228.844 69.5533 229.564 69.0333 230.377 68.66C231.19 68.2867 232.064 68.1 232.997 68.1C233.97 68.1 234.87 68.2867 235.697 68.66C236.537 69.02 237.27 69.5267 237.897 70.18C238.524 70.8333 239.017 71.5933 239.377 72.46C239.737 73.3133 239.917 74.24 239.917 75.24C239.917 76.2133 239.744 77.1333 239.397 78C239.05 78.8533 238.564 79.6133 237.937 80.28C237.31 80.9333 236.59 81.4467 235.777 81.82C234.977 82.18 234.11 82.36 233.177 82.36ZM233.077 79.92C233.69 79.92 234.264 79.8 234.797 79.56C235.33 79.32 235.797 78.9867 236.197 78.56C236.61 78.1333 236.93 77.64 237.157 77.08C237.384 76.5067 237.497 75.8933 237.497 75.24C237.497 74.5867 237.377 73.98 237.137 73.42C236.91 72.8467 236.59 72.3467 236.177 71.92C235.777 71.48 235.31 71.14 234.777 70.9C234.257 70.66 233.69 70.54 233.077 70.54C232.477 70.54 231.91 70.66 231.377 70.9C230.844 71.14 230.37 71.48 229.957 71.92C229.557 72.3467 229.244 72.8467 229.017 73.42C228.79 73.9933 228.677 74.6 228.677 75.24C228.677 75.88 228.79 76.4867 229.017 77.06C229.257 77.6333 229.577 78.1333 229.977 78.56C230.377 78.9867 230.837 79.32 231.357 79.56C231.89 79.8 232.464 79.92 233.077 79.92ZM250.989 82.14C250.722 82.14 250.509 82.0933 250.349 82C250.189 81.8933 250.069 81.7733 249.989 81.64C249.922 81.5067 249.875 81.3933 249.849 81.3L245.929 69.82C245.795 69.3933 245.775 69.0733 245.869 68.86C245.962 68.6333 246.235 68.4467 246.689 68.3C246.995 68.1933 247.242 68.1467 247.429 68.16C247.615 68.1733 247.769 68.2533 247.889 68.4C248.022 68.5333 248.135 68.7467 248.229 69.04L251.109 77.76L253.689 69.12C253.729 68.9867 253.782 68.8533 253.849 68.72C253.929 68.5733 254.049 68.4533 254.209 68.36C254.369 68.2667 254.589 68.22 254.869 68.22C255.189 68.22 255.429 68.2733 255.589 68.38C255.749 68.4867 255.862 68.6067 255.929 68.74C256.009 68.86 256.062 68.9733 256.089 69.08L258.669 77.82L261.569 69.06C261.662 68.7533 261.769 68.5267 261.889 68.38C262.022 68.2333 262.189 68.1533 262.389 68.14C262.589 68.1133 262.835 68.1533 263.129 68.26C263.435 68.3667 263.655 68.4867 263.789 68.62C263.922 68.74 263.989 68.9 263.989 69.1C263.989 69.2867 263.942 69.5267 263.849 69.82L259.949 81.32C259.922 81.4 259.869 81.5067 259.789 81.64C259.722 81.7733 259.609 81.8933 259.449 82C259.289 82.0933 259.069 82.14 258.789 82.14C258.509 82.14 258.289 82.08 258.129 81.96C257.969 81.84 257.849 81.7067 257.769 81.56C257.689 81.4133 257.635 81.3067 257.609 81.24L254.889 72.44L252.169 81.22C252.142 81.3133 252.089 81.4333 252.009 81.58C251.942 81.7267 251.829 81.86 251.669 81.98C251.509 82.0867 251.282 82.14 250.989 82.14ZM266.968 82.2C266.595 82.2 266.322 82.14 266.148 82.02C265.975 81.9133 265.868 81.7667 265.828 81.58C265.788 81.3933 265.768 81.1867 265.768 80.96V69.42C265.768 68.9667 265.855 68.6533 266.028 68.48C266.215 68.3067 266.548 68.22 267.028 68.22H274.828C275.055 68.22 275.255 68.2467 275.428 68.3C275.615 68.34 275.762 68.4467 275.868 68.62C275.975 68.78 276.028 69.0533 276.028 69.44C276.028 69.8133 275.968 70.0867 275.848 70.26C275.742 70.4333 275.595 70.54 275.408 70.58C275.235 70.62 275.035 70.64 274.808 70.64H268.188V74H272.748C272.975 74 273.168 74.0267 273.328 74.08C273.488 74.12 273.615 74.2133 273.708 74.36C273.802 74.5067 273.848 74.7533 273.848 75.1C273.848 75.4333 273.802 75.68 273.708 75.84C273.615 75.9867 273.482 76.08 273.308 76.12C273.135 76.1467 272.935 76.16 272.708 76.16H268.188V79.76H274.828C275.055 79.76 275.255 79.7867 275.428 79.84C275.615 79.88 275.762 79.9867 275.868 80.16C275.975 80.3333 276.028 80.6067 276.028 80.98C276.028 81.3533 275.968 81.6267 275.848 81.8C275.742 81.9733 275.595 82.08 275.408 82.12C275.235 82.1733 275.035 82.2 274.808 82.2H266.968ZM278.952 82.18C278.605 82.18 278.345 82.12 278.172 82C277.999 81.88 277.885 81.72 277.832 81.52C277.792 81.32 277.772 81.1 277.772 80.86V69.5C277.772 69.26 277.799 69.0467 277.852 68.86C277.905 68.66 278.012 68.5 278.172 68.38C278.345 68.26 278.612 68.2 278.972 68.2H284.252C285.025 68.2 285.705 68.38 286.292 68.74C286.892 69.1 287.359 69.58 287.692 70.18C288.025 70.7667 288.192 71.4133 288.192 72.12C288.192 72.44 288.152 72.76 288.072 73.08C288.005 73.3867 287.892 73.6733 287.732 73.94C287.585 74.2067 287.399 74.4467 287.172 74.66C287.479 74.9 287.745 75.1933 287.972 75.54C288.199 75.8867 288.365 76.2667 288.472 76.68C288.592 77.08 288.652 77.5 288.652 77.94C288.639 78.54 288.525 79.1 288.312 79.62C288.099 80.1267 287.799 80.5733 287.412 80.96C287.039 81.3467 286.599 81.6467 286.092 81.86C285.585 82.0733 285.039 82.18 284.452 82.18H278.952ZM280.192 79.82H284.252C284.639 79.82 284.979 79.7467 285.272 79.6C285.579 79.4533 285.819 79.2267 285.992 78.92C286.165 78.6133 286.252 78.2133 286.252 77.72C286.252 77.3333 286.199 77.0267 286.092 76.8C285.999 76.56 285.865 76.3733 285.692 76.24C285.532 76.1067 285.345 76.0133 285.132 75.96C284.932 75.9067 284.732 75.88 284.532 75.88C284.332 75.8667 284.145 75.86 283.972 75.86H283.052C282.705 75.86 282.452 75.78 282.292 75.62C282.132 75.4467 282.052 75.1667 282.052 74.78C282.052 74.42 282.139 74.1667 282.312 74.02C282.485 73.86 282.752 73.78 283.112 73.78H284.012C284.185 73.78 284.372 73.7733 284.572 73.76C284.785 73.7467 284.985 73.7 285.172 73.62C285.359 73.5267 285.512 73.38 285.632 73.18C285.752 72.98 285.812 72.6867 285.812 72.3C285.812 71.7 285.652 71.2667 285.332 71C285.025 70.72 284.492 70.58 283.732 70.58H280.192V79.82Z" fill="#FFFAF0"/>
</svg>
