<svg width="423" height="309" viewBox="0 0 423 309" fill="none" xmlns="http://www.w3.org/2000/svg">
<g clip-path="url(#clip0_19_2)" filter="url(#filter0_i_19_2)">
<path d="M205.732 43.6449C201.5 49.1954 198.245 55.3714 196.095 61.9283C194.177 67.6514 192.745 73.5136 191.812 79.4577C191.356 79.2857 190.907 79.1005 190.465 78.8954C186.402 77.0073 183.128 73.8555 181.177 69.9548C179.226 66.0542 178.715 61.6353 179.726 57.4203C180.737 53.2053 183.211 49.4433 186.744 46.7489C190.277 44.0546 194.66 42.5872 199.176 42.5865C200.873 42.5838 202.563 42.7906 204.205 43.2017C204.723 43.3273 205.235 43.4729 205.732 43.6449Z" fill="#64632B"/>
<path d="M20.8182 264.569C22.1909 253.999 29.0316 243.585 39.5585 240.145C35.407 251.024 35.4079 262.959 39.5611 273.838C41.1787 278.028 43.4334 282.526 41.9118 286.749C40.9651 289.377 38.6492 291.387 36.0604 292.644C33.4715 293.901 30.5983 294.5 27.7611 295.087L27.2028 295.529C22.6987 285.79 19.4455 275.139 20.8182 264.569Z" fill="#E6E6E6"/>
<path d="M39.663 240.345C33.5326 246.923 29.7224 255.182 28.7736 263.952C28.5343 265.836 28.6067 267.745 28.9881 269.607C29.4209 271.41 30.35 273.07 31.6789 274.412C32.8917 275.688 34.2866 276.859 35.1544 278.395C35.5864 279.188 35.8385 280.059 35.8943 280.951C35.9501 281.844 35.8082 282.737 35.478 283.574C34.7119 285.678 33.2019 287.393 31.6643 289.021C29.9571 290.829 28.154 292.681 27.4283 295.077C27.3404 295.368 26.875 295.22 26.9628 294.93C28.2254 290.76 32.4522 288.392 34.468 284.637C35.4086 282.884 35.8034 280.85 34.9216 279C34.1505 277.382 32.7132 276.174 31.4735 274.892C30.1571 273.6 29.191 272.019 28.6597 270.288C28.1805 268.45 28.0314 266.547 28.2189 264.661C28.5702 260.408 29.6175 256.235 31.3226 252.294C33.2425 247.786 35.9536 243.626 39.3387 239.993C39.5483 239.768 39.8712 240.122 39.663 240.345Z" fill="white"/>
<path d="M28.9055 261.111C27.3907 260.759 26.0559 259.902 25.1395 258.695C24.2232 257.487 23.7849 256.007 23.903 254.519C23.928 254.217 24.4178 254.24 24.3928 254.542C24.2802 255.928 24.6885 257.307 25.5442 258.429C26.4 259.552 27.6466 260.345 29.0593 260.665C29.3662 260.735 29.2107 261.18 28.9055 261.111Z" fill="white"/>
<path d="M30.975 273.843C33.711 272.279 35.7308 269.784 36.6315 266.857C36.7205 266.567 37.1859 266.715 37.097 267.005C36.1537 270.049 34.0464 272.64 31.1955 274.262C30.9237 274.417 30.7047 273.997 30.975 273.843Z" fill="white"/>
<path d="M33.6973 248.231C34.2538 248.484 34.8672 248.601 35.4825 248.571C36.0979 248.541 36.6958 248.365 37.2226 248.059C37.4923 247.902 37.711 248.322 37.4431 248.479C36.8594 248.814 36.1988 249.007 35.519 249.042C34.8393 249.076 34.161 248.951 33.5436 248.677C33.4831 248.655 33.4334 248.613 33.4044 248.558C33.3754 248.503 33.3695 248.439 33.3877 248.38C33.4083 248.321 33.4525 248.272 33.5104 248.244C33.5684 248.216 33.6356 248.212 33.6973 248.231Z" fill="white"/>
<path d="M71.646 259.024C71.4806 259.127 71.3151 259.23 71.1495 259.337C68.9325 260.733 66.8376 262.299 64.8855 264.02C64.7323 264.151 64.5792 264.285 64.4303 264.42C59.7734 268.614 55.9701 273.599 53.2137 279.123C52.119 281.322 51.2005 283.597 50.4664 285.929C49.4526 289.151 48.621 292.72 46.6143 295.355C46.4082 295.632 46.1843 295.897 45.944 296.147H27.8095C27.7683 296.128 27.7268 296.112 27.6854 296.092L26.9614 296.124C26.9905 296.001 27.0234 295.874 27.0525 295.751C27.0691 295.68 27.0897 295.608 27.1062 295.537C27.1186 295.49 27.1311 295.442 27.1394 295.399C27.1434 295.383 27.1477 295.367 27.1517 295.355C27.16 295.311 27.1725 295.272 27.1808 295.232C27.3628 294.523 27.5504 293.814 27.7434 293.105C27.7434 293.101 27.7434 293.101 27.7475 293.097C29.1647 287.679 31.2479 282.442 33.9537 277.494C34.0365 277.348 34.1191 277.197 34.2103 277.051C35.4632 274.861 36.9009 272.772 38.5091 270.807C39.3934 269.733 40.3338 268.703 41.3268 267.72C43.8976 265.186 46.8688 263.055 50.1312 261.405C56.6354 258.117 64.1655 256.857 71.1165 258.865C71.2943 258.917 71.4682 258.968 71.646 259.024Z" fill="#E6E6E6"/>
<path d="M71.6053 259.244C62.575 260.962 54.3394 265.36 48.0682 271.815C46.6924 273.181 45.5502 274.747 44.6835 276.454C43.8954 278.144 43.5941 280.004 43.8108 281.842C43.9769 283.56 44.3545 285.299 44.0816 287.026C43.9282 287.908 43.5818 288.749 43.0652 289.493C42.5487 290.238 41.8735 290.87 41.084 291.347C39.1493 292.586 36.8653 293.085 34.6139 293.498C32.1143 293.957 29.5103 294.396 27.4241 295.891C27.1713 296.072 26.8926 295.686 27.145 295.505C30.7746 292.904 35.6386 293.45 39.6093 291.614C41.4621 290.757 43.0565 289.36 43.5155 287.375C43.9169 285.639 43.529 283.845 43.3451 282.107C43.1063 280.316 43.3289 278.497 43.9935 276.808C44.7666 275.064 45.844 273.459 47.1795 272.061C50.1337 268.868 53.5938 266.14 57.433 263.977C61.8004 261.484 66.5809 259.725 71.5677 258.776C71.8763 258.718 71.9119 259.186 71.6053 259.244Z" fill="white"/>
<path d="M49.9597 269.623C48.9716 268.468 48.4443 267.015 48.4719 265.522C48.4994 264.03 49.0802 262.595 50.1103 261.475C50.3196 261.249 50.6961 261.55 50.4866 261.776C49.5253 262.818 48.9845 264.154 48.9618 265.544C48.9391 266.934 49.4359 268.285 50.3627 269.355C50.5638 269.588 50.1597 269.854 49.9597 269.623Z" fill="white"/>
<path d="M43.6067 280.982C46.7748 281.31 49.9558 280.483 52.5153 278.665C52.7687 278.485 53.0476 278.871 52.7944 279.051C50.1273 280.938 46.8152 281.792 43.5192 281.444C43.205 281.41 43.2943 280.949 43.6067 280.982Z" fill="white"/>
<path d="M61.8839 262.101C62.169 262.624 62.5853 263.071 63.0954 263.402C63.6055 263.733 64.1935 263.937 64.8064 263.997C65.1209 264.027 65.0312 264.488 64.7189 264.459C64.042 264.39 63.3929 264.164 62.8285 263.799C62.2641 263.435 61.8014 262.944 61.4809 262.369C61.446 262.317 61.4329 262.254 61.4444 262.194C61.4559 262.133 61.4911 262.079 61.5429 262.042C61.5964 262.007 61.6623 261.993 61.7261 262.004C61.79 262.016 61.8467 262.05 61.8839 262.101Z" fill="white"/>
<path d="M212.152 271.081C204.616 263.247 200.739 251.517 204.802 241.602C210.788 251.667 220.299 259.38 231.652 263.377C236.036 264.903 241.078 266.163 243.46 270.004C244.942 272.394 245.047 275.386 244.375 278.09C243.704 280.794 242.324 283.28 240.958 285.733L240.95 286.427C230.278 283.423 219.687 278.916 212.152 271.081Z" fill="#E6E6E6"/>
<path d="M205.028 241.655C206.308 250.386 210.427 258.508 216.802 264.869C218.149 266.262 219.716 267.443 221.447 268.368C223.164 269.217 225.086 269.611 227.015 269.508C228.816 269.446 230.65 269.184 232.435 269.542C233.346 269.739 234.203 270.118 234.95 270.654C235.698 271.19 236.318 271.871 236.771 272.653C237.953 274.573 238.343 276.784 238.647 278.96C238.984 281.376 239.294 283.89 240.735 285.97C240.91 286.221 240.491 286.466 240.317 286.215C237.81 282.597 238.655 277.978 236.965 274.078C236.177 272.258 234.811 270.654 232.767 270.103C230.979 269.621 229.088 269.89 227.265 269.968C225.385 270.095 223.5 269.779 221.777 269.048C220.003 268.21 218.39 267.089 217.008 265.733C213.847 262.728 211.198 259.265 209.16 255.472C206.808 251.156 205.245 246.486 204.538 241.664C204.495 241.366 204.985 241.358 205.028 241.655Z" fill="white"/>
<path d="M214.623 262.937C213.363 263.816 211.818 264.238 210.264 264.127C208.709 264.016 207.247 263.38 206.137 262.331C205.913 262.118 206.248 261.775 206.472 261.989C207.503 262.967 208.866 263.559 210.314 263.66C211.762 263.76 213.199 263.362 214.367 262.536C214.621 262.357 214.876 262.759 214.623 262.937Z" fill="white"/>
<path d="M226.107 269.654C226.628 266.644 225.946 263.556 224.196 261.006C224.022 260.753 224.441 260.509 224.614 260.761C226.43 263.418 227.133 266.632 226.583 269.764C226.531 270.062 226.054 269.951 226.107 269.654Z" fill="white"/>
<path d="M207.457 251.111C208.018 250.868 208.508 250.495 208.882 250.026C209.255 249.557 209.502 249.007 209.598 248.424C209.647 248.125 210.123 248.237 210.075 248.534C209.965 249.177 209.692 249.785 209.28 250.304C208.868 250.823 208.33 251.237 207.712 251.511C207.656 251.542 207.59 251.551 207.528 251.536C207.465 251.522 207.411 251.485 207.375 251.434C207.342 251.38 207.331 251.317 207.347 251.256C207.362 251.196 207.401 251.144 207.457 251.111Z" fill="white"/>
<path d="M240.585 230.358C240.56 230.546 240.535 230.733 240.513 230.923C240.193 233.445 240.087 235.988 240.196 238.527C240.201 238.723 240.21 238.922 240.221 239.118C240.553 245.232 242.067 251.233 244.687 256.817C245.732 259.038 246.952 261.18 248.336 263.224C250.247 266.046 252.554 268.961 253.357 272.13C253.444 272.46 253.511 272.795 253.555 273.132L241.834 286.383C241.792 286.4 241.752 286.42 241.71 286.438L241.267 286.987C241.188 286.886 241.108 286.78 241.029 286.68C240.983 286.622 240.94 286.56 240.894 286.502C240.864 286.463 240.834 286.423 240.804 286.388C240.794 286.375 240.784 286.362 240.778 286.351C240.748 286.317 240.725 286.282 240.699 286.251C240.251 285.659 239.807 285.064 239.367 284.464C239.364 284.462 239.364 284.462 239.363 284.456C235.962 279.919 233.135 275.012 230.942 269.838C230.878 269.682 230.812 269.525 230.754 269.363C229.818 267.032 229.084 264.632 228.557 262.186C228.273 260.846 228.06 259.493 227.918 258.133C227.561 254.616 227.783 251.068 228.576 247.618C230.16 240.74 234.023 234.423 240.116 230.643C240.272 230.546 240.425 230.452 240.585 230.358Z" fill="#E6E6E6"/>
<path d="M240.734 230.53C236.266 238.239 234.448 247.099 235.538 255.853C235.738 257.742 236.247 259.588 237.048 261.325C237.884 262.993 239.172 264.415 240.777 265.445C242.253 266.434 243.883 267.282 245.083 268.598C245.686 269.28 246.133 270.076 246.392 270.935C246.652 271.794 246.719 272.695 246.589 273.581C246.325 275.795 245.247 277.786 244.121 279.698C242.871 281.822 241.538 284.008 241.381 286.499C241.362 286.801 240.874 286.755 240.893 286.453C241.166 282.12 244.745 278.919 245.848 274.83C246.363 272.923 246.28 270.855 244.995 269.237C243.871 267.821 242.191 266.945 240.687 265.956C239.106 264.974 237.8 263.635 236.884 262.058C235.994 260.366 235.411 258.541 235.16 256.662C234.525 252.44 234.588 248.148 235.345 243.944C236.181 239.142 237.87 234.512 240.337 230.255C240.489 229.992 240.886 230.269 240.734 230.53Z" fill="white"/>
<path d="M235.014 253.054C233.455 253.03 231.956 252.476 230.785 251.491C229.613 250.506 228.846 249.155 228.619 247.678C228.574 247.379 229.057 247.298 229.102 247.598C229.31 248.973 230.026 250.232 231.119 251.147C232.211 252.062 233.61 252.573 235.061 252.587C235.377 252.59 235.328 253.058 235.014 253.054Z" fill="white"/>
<path d="M239.96 265.038C242.269 262.935 243.666 260.076 243.871 257.031C243.891 256.73 244.379 256.776 244.359 257.077C244.139 260.245 242.679 263.218 240.271 265.401C240.041 265.608 239.731 265.245 239.96 265.038Z" fill="white"/>
<path d="M236.727 239.48C237.328 239.61 237.954 239.595 238.547 239.436C239.14 239.277 239.683 238.979 240.127 238.57C240.354 238.359 240.664 238.723 240.438 238.932C239.946 239.383 239.346 239.71 238.691 239.887C238.036 240.064 237.345 240.085 236.68 239.947C236.616 239.939 236.558 239.908 236.517 239.861C236.476 239.813 236.455 239.753 236.46 239.691C236.466 239.629 236.498 239.572 236.548 239.533C236.598 239.493 236.663 239.474 236.727 239.48Z" fill="white"/>
<path d="M138.662 254.678C145.335 254.678 150.745 249.497 150.745 243.107C150.745 236.717 145.335 231.537 138.662 231.537C131.988 231.537 126.579 236.717 126.579 243.107C126.579 249.497 131.988 254.678 138.662 254.678Z" fill="#64632B"/>
<path d="M129.681 143.162C132.164 143.162 134.176 141.235 134.176 138.858C134.176 136.481 132.164 134.554 129.681 134.554C127.199 134.554 125.187 136.481 125.187 138.858C125.187 141.235 127.199 143.162 129.681 143.162Z" fill="#571359"/>
<path d="M67.8713 191.199C70.3537 191.199 72.366 189.272 72.366 186.895C72.366 184.518 70.3537 182.591 67.8713 182.591C65.389 182.591 63.3767 184.518 63.3767 186.895C63.3767 189.272 65.389 191.199 67.8713 191.199Z" fill="#64632B"/>
<path d="M420.659 0H2.34137C1.72092 0.00127116 1.12636 0.188668 0.687632 0.521222C0.248907 0.853777 0.00169378 1.30445 3.05959e-05 1.77474V12.2187C-0.000129804 12.69 0.246239 13.1421 0.685109 13.4761C1.12398 13.81 1.71956 13.9984 2.34137 14H420.659C421.28 13.9984 421.876 13.81 422.315 13.4761C422.754 13.1421 423 12.69 423 12.2187V1.77474C422.998 1.30444 422.751 0.853766 422.312 0.521212C421.874 0.188658 421.279 0.00126938 420.659 0Z" fill="#571359"/>
<path d="M10.7936 9.03395C12.2517 9.03395 13.4337 7.90206 13.4337 6.5058C13.4337 5.10954 12.2517 3.97765 10.7936 3.97765C9.33544 3.97765 8.1534 5.10954 8.1534 6.5058C8.1534 7.90206 9.33544 9.03395 10.7936 9.03395Z" fill="white"/>
<path d="M20.8147 9.03395C22.2728 9.03395 23.4549 7.90206 23.4549 6.5058C23.4549 5.10954 22.2728 3.97765 20.8147 3.97765C19.3566 3.97765 18.1746 5.10954 18.1746 6.5058C18.1746 7.90206 19.3566 9.03395 20.8147 9.03395Z" fill="white"/>
<path d="M30.8364 9.03395C32.2945 9.03395 33.4765 7.90206 33.4765 6.5058C33.4765 5.10954 32.2945 3.97765 30.8364 3.97765C29.3782 3.97765 28.1962 5.10954 28.1962 6.5058C28.1962 7.90206 29.3782 9.03395 30.8364 9.03395Z" fill="white"/>
<path d="M417.396 3H405.853C405.627 3 405.41 3.08607 405.25 3.23928C405.09 3.39248 405 3.60027 405 3.81694C405 4.0336 405.09 4.24139 405.25 4.3946C405.41 4.5478 405.627 4.63387 405.853 4.63387H417.396C417.623 4.63387 417.84 4.5478 418 4.3946C418.159 4.24139 418.249 4.0336 418.249 3.81694C418.249 3.60027 418.159 3.39248 418 3.23928C417.84 3.08607 417.623 3 417.396 3Z" fill="white"/>
<path d="M417.396 6H405.853C405.627 6 405.41 6.08607 405.25 6.23928C405.09 6.39248 405 6.60027 405 6.81694C405 7.0336 405.09 7.2414 405.25 7.39461C405.41 7.54781 405.627 7.63387 405.853 7.63387H417.396C417.623 7.63387 417.84 7.54781 418 7.39461C418.159 7.2414 418.249 7.0336 418.249 6.81694C418.249 6.60027 418.159 6.39248 418 6.23928C417.84 6.08607 417.623 6 417.396 6Z" fill="white"/>
<path d="M417.4 9H405.857C405.629 9 405.412 9.08641 405.251 9.24023C405.09 9.39406 405 9.60269 405 9.82024C405 10.0378 405.09 10.2464 405.251 10.4002C405.412 10.5541 405.629 10.6405 405.857 10.6405H417.4C417.627 10.6405 417.845 10.5541 418.005 10.4002C418.166 10.2464 418.256 10.0378 418.256 9.82024C418.256 9.60269 418.166 9.39406 418.005 9.24023C417.845 9.08641 417.627 9 417.4 9Z" fill="white"/>
<path d="M12.4162 91.3039C11.4575 91.3068 10.6817 92.4991 10.6836 93.9669C10.6855 95.4306 11.4601 96.6165 12.4162 96.6194H142.62C143.578 96.6165 144.354 95.4242 144.352 93.9564C144.35 92.4927 143.576 91.3068 142.62 91.3039H12.4162Z" fill="#E6E6E6"/>
<path d="M12.4162 106.705C11.4575 106.708 10.6817 107.9 10.6836 109.368C10.6855 110.832 11.4601 112.017 12.4162 112.02H142.62C143.578 112.017 144.354 110.825 144.352 109.357C144.35 107.894 143.576 106.708 142.62 106.705H12.4162Z" fill="#E6E6E6"/>
<path d="M12.4162 121.919C11.4575 121.922 10.6817 123.115 10.6836 124.582C10.6855 126.046 11.4601 127.232 12.4162 127.235H95.991C96.9498 127.232 97.7255 126.04 97.7236 124.572C97.7217 123.108 96.9471 121.922 95.991 121.919H12.4162Z" fill="#E6E6E6"/>
<path d="M3.04846 291.96C3.0923 291.864 3.14234 291.773 3.18779 291.678C3.26813 290.886 3.04846 291.96 3.04846 291.96Z" fill="#F2F2F2"/>
<path d="M26.7029 279.98C25.054 279.979 23.4072 280.093 21.7757 280.321L21.5402 280.354C16.319 281.155 11.5828 283.754 8.22121 287.663C4.85964 291.571 3.10403 296.521 3.28413 301.581L3.34653 303.485C3.38768 304.689 3.4315 305.982 3.46762 307.418C3.47194 307.752 3.61377 308.071 3.86227 308.305C4.11076 308.539 4.44581 308.67 4.79457 308.669H268.732C287.341 308.482 305.882 308.246 323.838 307.968C327.22 307.979 330.595 307.689 333.92 307.102C338.91 306.123 342.374 304.181 344.509 301.167C347.165 297.43 347.25 292.723 347.089 287.405C346.762 276.668 346.437 265.388 346.114 254.142C345.828 244.23 345.543 234.346 345.258 224.882C345.082 219.266 344.691 214.308 341.675 210.52C338.406 206.422 332.443 204.345 323.954 204.345C323.851 204.345 323.749 204.345 323.645 204.346C297.039 204.503 270.676 219.673 258.046 242.095C256.591 244.677 255.236 247.442 253.925 250.115C252.059 254.127 249.946 258.029 247.597 261.8C246.372 263.715 244.973 265.523 243.416 267.203C243.314 267.321 243.196 267.447 243.072 267.566C242.788 267.873 242.491 268.169 242.202 268.433C240.607 269.98 238.816 271.331 236.871 272.452L236.684 272.556C236.543 272.639 236.391 272.723 236.238 272.799C235.18 273.363 234.079 273.851 232.945 274.258C228.131 276.018 222.656 276.44 216.674 275.511C210.998 274.574 205.528 272.726 200.495 270.044C194.956 267.141 189.771 263.521 184.757 260.021C182.554 258.483 180.276 256.894 178.001 255.387C177.573 255.104 177.152 254.826 176.725 254.549C173.947 252.753 171.427 251.27 169.024 250.015C163.361 246.981 157.12 245.065 150.671 244.378C144.053 243.778 138.222 244.911 133.343 247.738C131.947 248.551 130.635 249.489 129.423 250.538C123.644 255.515 120.081 262.86 116.636 269.963C112.35 278.798 107.918 287.935 99.1674 292.671C89.0696 298.141 74.3303 295.869 63.9023 291.917C60.6237 290.674 57.3492 289.244 54.1823 287.861C52.9032 287.303 51.6242 286.744 50.3424 286.197C47.8255 285.119 45.7656 284.294 43.8598 283.597L43.2571 283.374C42.9218 283.254 42.5862 283.133 42.2445 283.018C40.133 282.274 37.9807 281.641 35.7973 281.122L35.3062 281.003C34.3216 280.788 33.4011 280.609 32.4978 280.458L32.1373 280.399C30.3407 280.119 28.5232 279.979 26.7029 279.98Z" fill="#E6E6E6"/>
<path d="M174.605 280.293C170.213 264.473 179.967 249.054 191.366 238.379C197.44 232.69 204.205 227.745 210.802 222.637C217.133 217.789 223.161 212.591 228.856 207.068C239.854 196.289 249.448 183.97 255.801 170.123C261.842 156.955 264.698 142.611 263.283 128.244C261.942 114.618 256.841 101.214 247.458 90.7591C246.289 89.4564 245.059 88.2077 243.769 87.0131C243.077 86.3696 242.016 87.383 242.709 88.0276C253.187 97.7697 259.285 110.972 261.349 124.707C263.478 138.871 261.285 153.311 255.753 166.554C249.861 180.661 240.491 193.249 229.625 204.234C224.153 209.73 218.332 214.899 212.194 219.709C205.64 224.879 198.83 229.763 192.589 235.288C181.086 245.471 170.749 259.477 172.169 275.244C172.334 277.078 172.666 278.895 173.161 280.674C173.219 280.852 173.346 281.001 173.517 281.09C173.688 281.179 173.888 281.201 174.075 281.152C174.263 281.102 174.423 280.985 174.521 280.825C174.62 280.665 174.65 280.474 174.605 280.293Z" fill="#E6E6E6"/>
<path d="M220.605 190.23C220.697 190.394 220.72 190.585 220.668 190.765C220.616 190.944 220.493 191.097 220.326 191.191C220.158 191.285 219.959 191.314 219.77 191.27C219.581 191.227 219.417 191.115 219.313 190.958C217.593 188.133 215.969 185.26 214.443 182.339C213.414 180.354 212.426 178.343 211.5 176.313C201.109 153.756 196.659 129.102 198.541 104.515C199.052 97.7885 200.066 91.1059 201.573 84.5181C201.884 83.1819 202.216 81.8457 202.582 80.5227C203.135 80.4367 203.673 80.3243 204.205 80.192C200.959 91.4637 199.653 103.351 199.611 114.98C199.564 128.134 201.331 141.237 204.868 153.948C208.39 166.663 213.683 178.867 220.605 190.23Z" fill="#E6E6E6"/>
<path d="M319.001 151.335C313.385 162.904 303.949 172.403 293.366 179.971C281.367 188.55 267.779 194.742 254.315 200.887C253.452 201.284 252.692 200.047 253.562 199.65C256.775 198.181 259.987 196.713 263.178 195.218C275.944 189.218 288.599 182.616 299.286 173.528C309.171 165.12 317.226 154.649 320.901 142.365C324.735 129.579 324.009 115.753 319.885 103.119C317.326 95.4466 313.655 88.1564 308.978 81.462C307.43 79.2196 305.793 77.0389 304.066 74.9199C302.809 73.3787 301.51 71.8683 300.17 70.3887C295.79 65.5783 291.028 61.0999 285.926 56.9936C280.619 52.6093 274.745 48.8965 268.449 45.9469C261.981 42.934 254.909 41.2957 247.718 41.1445C240.923 41.0546 234.231 42.7475 228.369 46.0395C224.361 48.3257 220.76 51.2108 217.703 54.5858C217.503 54.1029 217.282 53.6267 217.033 53.1636C222.311 47.5741 228.894 43.1818 236.555 41.0981C250.709 37.2483 265.651 41.7662 277.595 49.241C283.423 52.9648 288.866 57.2132 293.849 61.9283C295.708 63.6548 297.518 65.4342 299.258 67.2665C301.358 69.4627 303.364 71.736 305.275 74.0864C305.275 74.0864 305.289 74.0931 305.289 74.0997C305.931 74.8868 306.562 75.685 307.182 76.4943C315.257 87.0119 321.288 99.084 323.692 111.99C326.151 125.186 324.935 139.104 319.001 151.335Z" fill="#E6E6E6"/>
<path d="M309.51 137.47C303.9 149.039 294.464 158.538 283.874 166.106C272.4 174.302 259.476 180.328 246.599 186.208C246.012 186.48 245.418 186.744 244.831 187.015C244.736 187.062 244.632 187.088 244.526 187.093C244.42 187.097 244.314 187.08 244.216 187.042C244.079 187.004 243.957 186.928 243.866 186.824C243.774 186.72 243.717 186.592 243.701 186.457C243.686 186.321 243.713 186.184 243.778 186.064C243.844 185.943 243.946 185.844 244.071 185.778C244.568 185.547 245.073 185.322 245.57 185.097C246.427 184.7 247.276 184.31 248.133 183.92C249.991 183.073 251.845 182.215 253.694 181.346C266.453 175.353 279.115 168.745 289.794 159.656C299.687 151.249 307.741 140.777 311.416 128.494C315.243 115.707 314.518 101.889 310.394 89.2543C308.761 84.2959 306.642 79.4965 304.066 74.9199C302.595 72.3004 300.985 69.7405 299.258 67.2665C296.644 63.51 293.778 59.9195 290.679 56.5174C286.303 51.7075 281.543 47.2312 276.441 43.1289C271.133 38.7437 265.256 35.0309 258.958 32.0821C252.492 29.0672 245.423 27.4267 238.234 27.2731C231.436 27.1832 224.743 28.876 218.878 32.1681C213.745 35.1218 209.276 39.023 205.732 43.6449C201.5 49.1954 198.245 55.3714 196.095 61.9283C194.177 67.6514 192.745 73.5136 191.812 79.4577C190.689 86.6244 190.123 93.8612 190.12 101.108C190.075 114.265 191.843 127.369 195.377 140.083C198.903 152.797 204.195 165 211.113 176.365C211.132 176.395 211.148 176.426 211.162 176.458C211.225 176.625 211.222 176.808 211.153 176.973C211.084 177.138 210.953 177.272 210.787 177.35C210.62 177.428 210.43 177.444 210.251 177.396C210.073 177.347 209.92 177.237 209.821 177.086C208.101 174.269 206.48 171.395 204.958 168.467C192.486 144.354 186.992 117.48 189.049 90.6435C189.353 86.7143 189.825 82.7983 190.465 78.8955C190.914 76.1305 191.456 73.3809 192.089 70.6467C193.554 63.9311 195.886 57.4161 199.031 51.2519C200.513 48.432 202.244 45.7388 204.205 43.2016C209.932 35.7864 217.696 29.7801 227.07 27.2334C241.225 23.3769 256.16 27.8949 268.11 35.3697C273.936 39.0968 279.378 43.3449 284.365 48.057C289.221 52.5502 293.678 57.4223 297.69 62.6229C300.496 66.269 303.031 70.0996 305.275 74.0864C305.275 74.0864 305.289 74.093 305.289 74.0997C306.636 76.5009 307.872 78.955 308.978 81.462C311.365 86.8091 313.117 92.3963 314.2 98.1182C316.666 111.322 315.45 125.233 309.51 137.47Z" fill="#E6E6E6"/>
<path d="M263.305 142.46C269.913 142.42 276.302 140.187 281.383 136.141C286.555 131.976 289.959 126.144 290.954 119.743C291.539 116.124 291.35 112.43 290.401 108.883C290.343 108.705 290.215 108.556 290.044 108.467C289.874 108.378 289.674 108.356 289.486 108.406C289.299 108.455 289.139 108.572 289.04 108.733C288.941 108.893 288.911 109.083 288.956 109.264C290.558 115.287 289.835 121.66 286.922 127.214C284.683 131.366 281.297 134.85 277.133 137.285C272.968 139.721 268.185 141.014 263.305 141.025C263.111 141.032 262.927 141.11 262.792 141.244C262.657 141.378 262.582 141.556 262.582 141.742C262.582 141.928 262.657 142.107 262.792 142.241C262.927 142.375 263.111 142.453 263.305 142.46Z" fill="#E6E6E6"/>
<path d="M207.046 224.003L202.223 215.874C202.12 215.717 201.956 215.604 201.767 215.56C201.578 215.516 201.379 215.544 201.211 215.638C201.043 215.732 200.92 215.884 200.868 216.064C200.815 216.243 200.837 216.435 200.93 216.598L205.752 224.727C205.856 224.884 206.02 224.997 206.209 225.041C206.397 225.085 206.597 225.057 206.764 224.963C206.932 224.869 207.055 224.717 207.108 224.537C207.16 224.358 207.138 224.167 207.046 224.003Z" fill="#E6E6E6"/>
<path d="M178.891 58.1813C177.448 57.2059 175.869 56.1888 174.103 56.2294C169.829 56.3278 167.525 62.3273 163.256 62.1163C160.533 61.9817 158.726 59.3332 156.19 58.3728C152.89 57.1226 148.69 59.5677 148.33 62.9489L148.754 62.5774C161.583 65.5724 174.897 66.1614 187.961 64.3119C184.937 62.2683 181.914 60.2248 178.891 58.1813Z" fill="#E6E6E6"/>
<path d="M161.229 302.227C163.612 302.227 165.544 300.377 165.544 298.095C165.544 295.813 163.612 293.962 161.229 293.962C158.846 293.962 156.914 295.813 156.914 298.095C156.914 300.377 158.846 302.227 161.229 302.227Z" fill="#64632B"/>
<path d="M173.743 302.227C176.126 302.227 178.058 300.377 178.058 298.095C178.058 295.813 176.126 293.962 173.743 293.962C171.36 293.962 169.428 295.813 169.428 298.095C169.428 300.377 171.36 302.227 173.743 302.227Z" fill="white"/>
<path d="M186.257 302.227C188.64 302.227 190.572 300.377 190.572 298.095C190.572 295.813 188.64 293.962 186.257 293.962C183.874 293.962 181.942 295.813 181.942 298.095C181.942 300.377 183.874 302.227 186.257 302.227Z" fill="#64632B"/>
<path d="M173.783 301.4C175.689 301.4 177.235 299.92 177.235 298.095C177.235 296.269 175.689 294.789 173.783 294.789C171.876 294.789 170.331 296.269 170.331 298.095C170.331 299.92 171.876 301.4 173.783 301.4Z" fill="#3F3D56"/>
<path d="M376.43 299.545H371.7L369.449 282.075H376.43V299.545Z" fill="#FFB6B6"/>
<path d="M378.926 307.393H375.534L374.929 304.326L373.378 307.393H364.382C363.951 307.393 363.531 307.261 363.183 307.016C362.836 306.771 362.579 306.427 362.451 306.032C362.323 305.638 362.329 305.215 362.47 304.825C362.611 304.434 362.878 304.097 363.233 303.863L370.417 299.111V296.011L377.973 296.443L378.926 307.393Z" fill="#2F2E41"/>
<path d="M349.243 295.672L344.79 297.199L336.521 281.478L343.094 279.225L349.243 295.672Z" fill="#FFB6B6"/>
<path d="M354.964 300.111L352.034 301.748L349.897 299.391L350.171 302.788L342.401 307.129C342.028 307.337 341.596 307.426 341.167 307.382C340.738 307.338 340.335 307.164 340.017 306.886C339.699 306.607 339.482 306.238 339.398 305.833C339.314 305.428 339.367 305.008 339.55 304.634L343.256 297.064L341.624 294.386L348.379 291.113L354.964 300.111Z" fill="#2F2E41"/>
<path d="M377.325 288.871H377.268L376.263 257.475C376.913 256.274 377.243 254.936 377.224 253.583C377.204 252.229 376.835 250.901 376.15 249.717L376.006 249.468L376.379 247.811C376.859 245.683 376.639 243.464 375.75 241.46L374.812 212.174C378.163 191.379 362.455 175.095 362.455 175.095H337.323L333.135 194.714L319.724 243.802C319.13 244.667 318.76 245.656 318.646 246.685C318.531 247.715 318.676 248.756 319.067 249.722L338.112 285.8L337.965 285.871C337.686 286.02 337.478 286.266 337.384 286.558C337.289 286.85 337.316 287.165 337.458 287.439C337.707 288.129 338.337 288.547 338.866 288.373L346.29 284.777C346.569 284.628 346.777 284.382 346.871 284.091C346.965 283.799 346.939 283.483 346.797 283.21C346.548 282.519 345.917 282.101 345.388 282.276L344.529 282.692L338.783 255.571L338.58 250.037L338.999 243.76L351.355 216.882L358.685 251.607L369.488 289.22C369.282 289.399 369.137 289.634 369.072 289.894C369.008 290.153 369.028 290.426 369.128 290.674C369.229 290.923 369.406 291.137 369.636 291.287C369.866 291.438 370.138 291.518 370.417 291.517H377.325C377.691 291.517 378.043 291.378 378.302 291.129C378.561 290.881 378.706 290.545 378.706 290.194C378.706 289.843 378.561 289.507 378.302 289.258C378.043 289.01 377.691 288.871 377.325 288.871Z" fill="#2F2E41"/>
<path d="M365.264 161.204L364.593 168.375C364.593 168.375 364.303 174.328 363.385 175.644C362.473 176.954 337.59 177.12 337.59 177.12C337.59 177.12 335.946 168.633 334.53 161.204H365.264Z" fill="#FFB6B6"/>
<path d="M352.803 116.527C359.864 116.527 365.588 111.046 365.588 104.284C365.588 97.5227 359.864 92.0415 352.803 92.0415C345.742 92.0415 340.018 97.5227 340.018 104.284C340.018 111.046 345.742 116.527 352.803 116.527Z" fill="#FFB6B6"/>
<path d="M359.364 118.869L349.103 120.025C348.67 120.074 348.264 120.251 347.941 120.531C347.619 120.811 347.395 121.181 347.302 121.588L345.67 128.739L335.498 140.21C335.498 140.21 331.845 146.768 333.215 154.201C334.584 161.634 335.186 167.158 335.186 167.158C335.186 167.158 362.474 176.955 363.387 175.643C364.3 174.331 364.597 168.373 364.597 168.373L368.25 129.459C368.25 129.459 364.14 122.901 361.857 122.901C360.384 122.853 360.573 119.678 359.364 118.869Z" fill="#571359"/>
<path opacity="0.2" d="M354.833 144.012L350.268 176.367L345.479 176.606L354.833 144.012Z" fill="black"/>
<path d="M334.909 169.55C336.348 169.55 337.514 168.21 337.514 166.556C337.514 164.903 336.348 163.562 334.909 163.562C333.47 163.562 332.304 164.903 332.304 166.556C332.304 168.21 333.47 169.55 334.909 169.55Z" fill="#571359"/>
<path d="M352.76 206.538C353.303 206.021 353.721 205.395 353.984 204.707C354.248 204.018 354.35 203.282 354.285 202.551C354.219 201.82 353.987 201.112 353.605 200.477C353.222 199.841 352.699 199.293 352.072 198.872L360.625 159.232L351.397 162.02L344.515 200.369C343.846 201.424 343.605 202.679 343.838 203.894C344.07 205.108 344.76 206.199 345.776 206.96C346.792 207.72 348.064 208.097 349.351 208.02C350.639 207.942 351.851 207.415 352.76 206.538Z" fill="#FFB6B6"/>
<path d="M359.563 123.966C359.563 123.966 365.712 121.417 369.445 127.834C373.179 134.251 367.791 156.555 367.035 160.175C366.279 163.794 355.91 181.049 355.91 181.049L345.548 179.064L359.563 123.966Z" fill="#571359"/>
<path d="M346.988 92.5808C351.421 89.6613 355.325 89.2166 358.532 90.0446C358.948 89.4289 359.531 88.9332 360.218 88.6108C362.719 82.5762 370.331 78.952 376.863 80.7138C383.437 82.4869 387.973 89.4602 386.736 95.8923C385.969 99.8792 383.349 103.332 382.295 107.258C380.255 114.859 385.232 123.565 393.018 126.015C385.646 127.433 377.531 123.121 374.887 116.381C373.602 113.107 373.525 109.533 373.362 106.039C373.198 102.546 372.904 98.9472 371.251 95.829C370.143 93.6903 368.302 91.9802 366.036 90.9841C366.239 91.5851 366.29 92.2236 366.184 92.8471C366.078 93.4705 365.819 94.061 365.429 94.5697C367.157 96.6435 368.098 98.8862 368.098 100.229C371.69 106.515 366.554 111.913 359.99 115.352C357.372 116.731 354.349 117.236 351.398 116.787L351.124 115.664L350.752 116.675L349.51 120.065C348.077 120.729 346.656 121.456 345.248 122.248C345.783 119.842 346.216 117.441 346.514 115.094C346.926 111.899 345.489 107.142 344.452 104.249C343.809 102.467 343.48 100.594 343.476 98.7081V98.6256L342.467 101.73L338.792 100.229C339.475 96.4741 338.792 92.2111 346.988 92.5808Z" fill="#2F2E41"/>
<path d="M423 308.213C422.999 308.421 422.913 308.621 422.759 308.769C422.605 308.916 422.396 309 422.178 309H266.549C266.331 309 266.122 308.917 265.968 308.769C265.814 308.622 265.727 308.422 265.727 308.213C265.727 308.004 265.814 307.804 265.968 307.656C266.122 307.509 266.331 307.426 266.549 307.426H422.178C422.286 307.425 422.393 307.446 422.493 307.485C422.593 307.524 422.684 307.582 422.76 307.656C422.836 307.729 422.897 307.816 422.938 307.911C422.979 308.007 423 308.109 423 308.213Z" fill="#CCCCCC"/>
</g>
<defs>
<filter id="filter0_i_19_2" x="0" y="0" width="423" height="313" filterUnits="userSpaceOnUse" color-interpolation-filters="sRGB">
<feFlood flood-opacity="0" result="BackgroundImageFix"/>
<feBlend mode="normal" in="SourceGraphic" in2="BackgroundImageFix" result="shape"/>
<feColorMatrix in="SourceAlpha" type="matrix" values="0 0 0 0 0 0 0 0 0 0 0 0 0 0 0 0 0 0 127 0" result="hardAlpha"/>
<feOffset dy="4"/>
<feGaussianBlur stdDeviation="2"/>
<feComposite in2="hardAlpha" operator="arithmetic" k2="-1" k3="1"/>
<feColorMatrix type="matrix" values="0 0 0 0 0 0 0 0 0 0 0 0 0 0 0 0 0 0 0.25 0"/>
<feBlend mode="normal" in2="shape" result="effect1_innerShadow_19_2"/>
</filter>
<clipPath id="clip0_19_2">
<rect width="423" height="309" fill="white"/>
</clipPath>
</defs>
</svg>
